<?xml version="1.0" encoding="UTF-8" standalone="no"?>
<!DOCTYPE svg PUBLIC "-//W3C//DTD SVG 1.1//EN" "http://www.w3.org/Graphics/SVG/1.1/DTD/svg11.dtd">
<svg width="100%" height="100%" viewBox="0 0 294 250" version="1.1" xmlns="http://www.w3.org/2000/svg" xmlns:xlink="http://www.w3.org/1999/xlink" xml:space="preserve" xmlns:serif="http://www.serif.com/" style="fill-rule:evenodd;clip-rule:evenodd;stroke-linejoin:round;stroke-miterlimit:2;">
    <g transform="matrix(0.587787,0,0,-0.586631,0,248.79)">
        <path d="M496.4,293.7L250,2.8L3.6,293.7L113.5,421.3L386.5,421.3L496.4,293.7Z" style="fill:white;fill-rule:nonzero;"/>
    </g>
    <g transform="matrix(0.587787,0,0,-0.586631,0,249.67)">
        <path d="M387.7,425.6L112.3,425.6L0,295.2L250,0L498.5,293.4L500,295.2L387.7,425.6ZM389.2,415.4L490.3,298L389.2,298L389.2,415.4ZM383.7,420.1L383.7,301.5L255.4,420.1L383.7,420.1ZM379.4,297.9L120.6,297.9L250,417.5L379.4,297.9ZM116.3,420.1L244.6,420.1L116.3,301.5L116.3,420.1ZM110.8,415.4L110.8,298L9.7,298L110.8,415.4ZM9.6,292.4L111.8,292.4L238.7,22L9.6,292.4ZM117.9,292.4L382.1,292.4L250,10.8L117.9,292.4ZM261.4,22L388.3,292.4L490.5,292.4L261.4,22Z" style="fill-rule:nonzero;"/>
    </g>
    <g transform="matrix(4.16667,0,0,4.16667,-1597.42,-2956.89)">
        <clipPath id="_clip1">
            <rect x="415.269" y="709.642" width="22.511" height="33.016"/>
        </clipPath>
        <g clip-path="url(#_clip1)">
            <g transform="matrix(-0.00176355,0.0383683,-0.0384079,-0.00176173,443.652,675.589)">
                <path d="M1281.6,349.769C1297.6,354.321 1312.61,357.694 1312.29,377.28C1312.03,393.759 1295,412.22 1281.6,409.042C1264.67,405.025 1259.78,390.644 1259.54,375.319C1259.31,360.224 1267.59,351.394 1281.6,349.769" style="fill:rgb(53,55,54);fill-rule:nonzero;"/>
            </g>
            <g transform="matrix(0.0384484,0,0,-0.0384087,377.283,720.468)">
                <path d="M1347.53,114.879C1348.41,139.437 1352.97,152.781 1368.96,166.973C1371.66,145.207 1364.55,132.898 1347.53,114.879" style="fill:rgb(53,55,54);fill-rule:nonzero;"/>
            </g>
            <g transform="matrix(0.0384484,0,0,-0.0384087,377.283,755.659)">
                <path d="M1274.96,615.984C1278.17,600.988 1272.82,591.832 1261.86,582.105C1256.48,597.906 1258.37,608.355 1274.96,615.984" style="fill:rgb(53,55,54);fill-rule:nonzero;"/>
            </g>
            <g transform="matrix(0.0384484,0,0,-0.0384087,377.283,724.869)">
                <path d="M1389.12,212.145C1383.13,203.766 1377.15,195.391 1369.22,184.289C1361.8,207.488 1377.02,208.539 1389.12,212.145" style="fill:rgb(53,55,54);fill-rule:nonzero;"/>
            </g>
            <g transform="matrix(-0.0363914,-0.0123947,0.0124075,-0.0363538,447.434,752.569)">
                <path d="M1003.7,397.832C1007.92,396.552 1014.72,393.621 1015.43,398.77C1016.54,406.867 1010.62,413.698 1003.7,418.071C1001.88,419.221 996.328,418.134 995.4,416.465C990.229,407.122 995.684,401.746 1003.7,397.832" style="fill:rgb(53,55,54);fill-rule:nonzero;"/>
            </g>
            <g transform="matrix(-0.0132279,-0.036064,0.0361013,-0.0132142,446.111,784.176)">
                <clipPath id="_clip2">
                    <path d="M1584.05,340.627L1581.13,348.591L1564.23,342.399L1567.15,334.435L1584.05,340.627Z"/>
                </clipPath>
                <g clip-path="url(#_clip2)">
                    <path d="M1573.42,337.423C1575.73,341.148 1578.06,344.876 1580.39,348.615C1577.98,350.021 1574.04,353.118 1573.42,352.558C1570.18,349.624 1567.79,345.756 1565.11,342.218C1567.53,340.825 1569.95,339.422 1573.42,337.423" style="fill:rgb(53,55,54);fill-rule:nonzero;"/>
                </g>
            </g>
            <g transform="matrix(-0.0382287,-0.00410048,0.00410472,-0.0381892,486.64,723.755)">
                <path d="M1431.2,101.727C1433.24,103.646 1436.56,105.301 1437.02,107.55C1437.78,111.256 1434.9,113.207 1431.2,112.119C1429.94,111.747 1428.75,110.193 1428.11,108.891C1426.28,105.206 1427.46,102.75 1431.2,101.727" style="fill:rgb(53,55,54);fill-rule:nonzero;"/>
            </g>
            <g transform="matrix(-0.00973085,0.0371582,-0.0371966,-0.00972079,429.674,680.027)">
                <path d="M978.105,132.16C982.968,134.618 984.83,138.71 984.253,143.928C983.808,147.941 980.368,150.933 978.105,148.86C974.929,145.948 972.823,141.124 971.845,136.769C970.937,132.711 974.029,130.949 978.105,132.16" style="fill:rgb(53,55,54);fill-rule:nonzero;"/>
            </g>
        </g>
    </g>
</svg>
