<?xml version="1.0" encoding="UTF-8" standalone="no"?>
<!DOCTYPE svg PUBLIC "-//W3C//DTD SVG 1.1//EN" "http://www.w3.org/Graphics/SVG/1.1/DTD/svg11.dtd">
<svg width="100%" height="100%" viewBox="0 0 294 250" version="1.1" xmlns="http://www.w3.org/2000/svg" xmlns:xlink="http://www.w3.org/1999/xlink" xml:space="preserve" xmlns:serif="http://www.serif.com/" style="fill-rule:evenodd;clip-rule:evenodd;stroke-linejoin:round;stroke-miterlimit:2;">
    <g transform="matrix(0.587787,0,0,-0.586631,0,248.79)">
        <path d="M496.4,293.7L250,2.8L3.6,293.7L113.5,421.3L386.5,421.3L496.4,293.7Z" style="fill:white;fill-rule:nonzero;"/>
    </g>
    <g transform="matrix(0.587787,0,0,-0.586631,0,249.67)">
        <path d="M387.7,425.6L112.3,425.6L0,295.2L250,0L498.5,293.4L500,295.2L387.7,425.6ZM389.2,415.4L490.3,298L389.2,298L389.2,415.4ZM383.7,420.1L383.7,301.5L255.4,420.1L383.7,420.1ZM379.4,297.9L120.6,297.9L250,417.5L379.4,297.9ZM116.3,420.1L244.6,420.1L116.3,301.5L116.3,420.1ZM110.8,415.4L110.8,298L9.7,298L110.8,415.4ZM9.6,292.4L111.8,292.4L238.7,22L9.6,292.4ZM117.9,292.4L382.1,292.4L250,10.8L117.9,292.4ZM261.4,22L388.3,292.4L490.5,292.4L261.4,22Z" style="fill-rule:nonzero;"/>
    </g>
    <g transform="matrix(4.16667,0,0,4.16667,-2557.27,-2947.51)">
        <clipPath id="_clip1">
            <path d="M617.79,738.728L645.044,704.797L674.295,728.292L647.041,762.223L617.79,738.728Z" clip-rule="nonzero"/>
        </clipPath>
        <g clip-path="url(#_clip1)">
            <g>
                <clipPath id="_clip2">
                    <path d="M581.317,749.433L628.306,690.931L692.658,742.62L645.669,801.122L581.317,749.433Z" clip-rule="nonzero"/>
                </clipPath>
                <g clip-path="url(#_clip2)">
                    <g>
                        <clipPath id="_clip3">
                            <path d="M581.317,749.433L628.306,690.931L692.658,742.62L645.669,801.122L581.317,749.433Z" clip-rule="nonzero"/>
                        </clipPath>
                        <g clip-path="url(#_clip3)">
                            <g transform="matrix(0.0481056,0.0261422,-0.0262743,0.0482205,629.637,663.9)">
                                <path d="M1055.66,883.981C1071.78,887.62 1084.46,906.883 1080.57,922.055C1077.24,935.091 1066.88,937.27 1055.66,935.834C1039.85,933.816 1029.88,916.211 1032.39,897.749C1034.49,882.267 1045.42,883.842 1055.66,883.981" style="fill-rule:nonzero;"/>
                            </g>
                            <g transform="matrix(0.0407491,-0.0368128,0.0366606,0.0406626,582.123,739.092)">
                                <path d="M748.111,902.622C757.877,901.058 767.912,902.336 769.867,913.135C772.691,928.732 760.067,933.744 748.111,936.574C738.918,938.749 728.346,936.933 726.671,925.986C724.386,911.109 734.486,904.499 748.111,902.622" style="fill-rule:nonzero;"/>
                            </g>
                            <g transform="matrix(-0.0302106,0.0458619,-0.0457363,-0.0300885,695.92,670.068)">
                                <path d="M1200.13,399.119C1202.89,401.087 1204.69,401.701 1205.32,402.914C1212.06,415.967 1216.93,429.029 1200.13,438.442C1198.19,439.526 1193.13,438.654 1191.98,436.999C1181.2,421.282 1185.41,409.055 1200.13,399.119" style="fill-rule:nonzero;"/>
                            </g>
                            <g transform="matrix(0.0473399,0.0275012,-0.02763,0.0474585,629.811,670.294)">
                                <path d="M966.531,849.749C977.582,854.548 976.243,865.502 975.331,876.011C974.905,880.924 972.022,885.521 966.531,883.795C954.971,880.164 948.838,871.803 951.476,859.496C952.777,853.419 957.518,849.154 966.531,849.749" style="fill-rule:nonzero;"/>
                            </g>
                        </g>
                    </g>
                </g>
            </g>
        </g>
    </g>
    <g transform="matrix(4.16667,0,0,4.16667,-2557.27,-2947.51)">
        <clipPath id="_clip4">
            <path d="M617.79,738.728L645.044,704.797L674.295,728.292L647.041,762.223L617.79,738.728Z" clip-rule="nonzero"/>
        </clipPath>
        <g clip-path="url(#_clip4)">
            <g>
                <clipPath id="_clip5">
                    <path d="M581.317,749.433L628.306,690.931L692.658,742.62L645.669,801.122L581.317,749.433Z" clip-rule="nonzero"/>
                </clipPath>
                <g clip-path="url(#_clip5)">
                    <g>
                        <clipPath id="_clip6">
                            <path d="M581.317,749.433L628.306,690.931L692.658,742.62L645.669,801.122L581.317,749.433Z" clip-rule="nonzero"/>
                        </clipPath>
                        <g clip-path="url(#_clip6)">
                            <g>
                                <clipPath id="_clip7">
                                    <path d="M650.961,711.474L652.13,710.018L653.411,711.046L652.241,712.502L650.961,711.474Z" clip-rule="nonzero"/>
                                </clipPath>
                                <g clip-path="url(#_clip7)">
                                    <g transform="matrix(0.0373991,-0.0402165,0.0400724,0.0372996,578.777,744.217)">
                                        <clipPath id="_clip8">
                                            <path d="M1331.94,558.257L1365.11,555.842L1367.29,585.763L1334.12,588.176L1331.94,558.257Z" clip-rule="nonzero"/>
                                        </clipPath>
                                        <g clip-path="url(#_clip8)">
                                            <path d="M1347.55,558.056C1357.4,558.651 1366.31,561.677 1366.09,570.038C1365.85,579.597 1357.95,586 1347.55,586.686C1340.52,587.147 1335.77,583.141 1334.37,576.545C1331.88,564.797 1339.55,560.514 1347.55,558.056" style="fill-rule:nonzero;"/>
                                        </g>
                                    </g>
                                </g>
                            </g>
                        </g>
                    </g>
                </g>
            </g>
        </g>
    </g>
    <g transform="matrix(4.16667,0,0,4.16667,-2557.27,-2947.51)">
        <clipPath id="_clip9">
            <path d="M617.79,738.728L645.044,704.797L674.295,728.292L647.041,762.223L617.79,738.728Z" clip-rule="nonzero"/>
        </clipPath>
        <g clip-path="url(#_clip9)">
            <g>
                <clipPath id="_clip10">
                    <path d="M581.317,749.433L628.306,690.931L692.658,742.62L645.669,801.122L581.317,749.433Z" clip-rule="nonzero"/>
                </clipPath>
                <g clip-path="url(#_clip10)">
                    <g>
                        <clipPath id="_clip11">
                            <path d="M581.317,749.433L628.306,690.931L692.658,742.62L645.669,801.122L581.317,749.433Z" clip-rule="nonzero"/>
                        </clipPath>
                        <g clip-path="url(#_clip11)">
                            <g transform="matrix(0.0404267,-0.0371673,0.0370158,0.0403388,582.747,743.366)">
                                <path d="M380.069,644.056C382.209,644.615 389.059,644.659 389.908,646.936C392.867,654.874 385.661,656.465 380.069,658.194C375.729,659.535 369.957,660.394 368.214,655.697C365.298,647.835 371.675,645.734 380.069,644.056" style="fill-rule:nonzero;"/>
                            </g>
                            <g transform="matrix(0.0381436,-0.0395103,0.0393643,0.0380469,580.686,742.811)">
                                <path d="M977.205,894.576C984.54,894.194 988.477,898.458 988.062,905.012C987.67,911.175 983.149,916.253 977.205,917.731C970.919,919.296 965.436,916.484 964.615,909.232C963.591,900.205 969.011,896.041 977.205,894.576" style="fill-rule:nonzero;"/>
                            </g>
                        </g>
                    </g>
                </g>
            </g>
        </g>
    </g>
</svg>
