<?xml version="1.0" encoding="UTF-8" standalone="no"?>
<!DOCTYPE svg PUBLIC "-//W3C//DTD SVG 1.1//EN" "http://www.w3.org/Graphics/SVG/1.1/DTD/svg11.dtd">
<svg width="100%" height="100%" viewBox="0 0 294 250" version="1.1" xmlns="http://www.w3.org/2000/svg" xmlns:xlink="http://www.w3.org/1999/xlink" xml:space="preserve" xmlns:serif="http://www.serif.com/" style="fill-rule:evenodd;clip-rule:evenodd;stroke-linejoin:round;stroke-miterlimit:2;">
    <g transform="matrix(0.587787,0,0,-0.586631,0,248.79)">
        <path d="M496.4,293.7L250,2.8L3.6,293.7L113.5,421.3L386.5,421.3L496.4,293.7Z" style="fill:white;fill-rule:nonzero;"/>
    </g>
    <g transform="matrix(0.587787,0,0,-0.586631,0,249.67)">
        <path d="M387.7,425.6L112.3,425.6L0,295.2L250,0L498.5,293.4L500,295.2L387.7,425.6ZM389.2,415.4L490.3,298L389.2,298L389.2,415.4ZM383.7,420.1L383.7,301.5L255.4,420.1L383.7,420.1ZM379.4,297.9L120.6,297.9L250,417.5L379.4,297.9ZM116.3,420.1L244.6,420.1L116.3,301.5L116.3,420.1ZM110.8,415.4L110.8,298L9.7,298L110.8,415.4ZM9.6,292.4L111.8,292.4L238.7,22L9.6,292.4ZM117.9,292.4L382.1,292.4L250,10.8L117.9,292.4ZM261.4,22L388.3,292.4L490.5,292.4L261.4,22Z" style="fill-rule:nonzero;"/>
    </g>
    <g transform="matrix(0.0243578,0.136747,-0.135121,0.024651,257.595,-34.1386)">
        <path d="M1055.66,883.981C1071.78,887.62 1084.46,906.883 1080.57,922.055C1077.24,935.091 1066.88,937.27 1055.66,935.834C1039.85,933.816 1029.88,916.211 1032.39,897.749C1034.49,882.267 1045.42,883.842 1055.66,883.981" style="fill:rgb(7,4,4);fill-rule:nonzero;"/>
    </g>
    <g transform="matrix(0.135547,0.0221251,-0.0218619,0.137179,36.6523,-8.64855)">
        <path d="M748.111,902.622C757.877,901.058 767.912,902.336 769.867,913.135C772.691,928.732 760.067,933.744 748.111,936.574C738.918,938.749 728.346,936.933 726.671,925.986C724.386,911.109 734.486,904.499 748.111,902.622" style="fill:rgb(7,4,4);fill-rule:nonzero;"/>
    </g>
    <g transform="matrix(-0.136686,0.0131126,-0.0129567,-0.138331,349.344,106.832)">
        <path d="M1200.13,399.119C1202.89,401.087 1204.69,401.701 1205.32,402.914C1212.06,415.967 1216.93,429.029 1200.13,438.442C1198.19,439.526 1193.13,438.654 1191.98,436.999C1181.2,421.282 1185.41,409.055 1200.13,399.119" style="fill:rgb(7,4,4);fill-rule:nonzero;"/>
    </g>
    <g transform="matrix(0.0205103,0.137392,-0.135758,0.0207571,245.406,-23.6308)">
        <path d="M966.531,849.749C977.582,854.548 976.243,865.502 975.331,876.011C974.905,880.924 972.022,885.521 966.531,883.795C954.971,880.164 948.838,871.803 951.476,859.496C952.777,853.419 957.518,849.154 966.531,849.749" style="fill:rgb(7,4,4);fill-rule:nonzero;"/>
    </g>
    <g transform="matrix(0.136937,0.0100858,-0.00996582,0.138585,21.4258,-7.12403)">
        <path d="M1347.55,558.056C1357.4,558.651 1366.31,561.677 1366.09,570.038C1365.85,579.597 1357.95,586 1347.55,586.686C1340.52,587.147 1335.77,583.141 1334.37,576.545C1331.88,564.797 1339.55,560.514 1347.55,558.056" style="fill:rgb(7,4,4);fill-rule:nonzero;"/>
    </g>
    <g transform="matrix(0.136735,-0.0125757,0.0124261,0.138381,15.5278,16.0981)">
        <path d="M780.091,-0.061C786.688,0.809 792.631,3.479 792.311,10.879C792.019,17.63 786.459,21.887 780.091,22.383C773.371,22.906 767.842,19.101 768.197,11.692C768.518,4.963 773.161,0.874 780.091,-0.061" style="fill:rgb(7,4,4);fill-rule:nonzero;"/>
    </g>
    <g transform="matrix(0.135733,0.0209237,-0.0206748,0.137367,29.2995,-0.62069)">
        <path d="M380.069,644.056C382.209,644.615 389.059,644.659 389.908,646.936C392.867,654.874 385.661,656.465 380.069,658.194C375.729,659.535 369.957,660.394 368.214,655.697C365.298,647.835 371.675,645.734 380.069,644.056" style="fill:rgb(7,4,4);fill-rule:nonzero;"/>
    </g>
    <g transform="matrix(0.136726,0.0126815,-0.0125307,0.138372,27.1553,-5.58086)">
        <path d="M977.205,894.576C984.54,894.194 988.477,898.458 988.062,905.012C987.67,911.175 983.149,916.253 977.205,917.731C970.919,919.296 965.436,916.484 964.615,909.232C963.591,900.205 969.011,896.041 977.205,894.576" style="fill:rgb(7,4,4);fill-rule:nonzero;"/>
    </g>
    <g transform="matrix(0.137157,-0.00631344,0.00623835,0.138808,8.79586,8.7381)">
        <path d="M366.58,1030.44C371.345,1030.4 375.466,1032.38 376.194,1037.01C377.264,1043.83 372.753,1047.84 366.58,1049.01C359.871,1050.29 354.492,1047.07 354.475,1040.13C354.455,1033.19 360.706,1031.41 366.58,1030.44" style="fill:rgb(7,4,4);fill-rule:nonzero;"/>
    </g>
    <g transform="matrix(-0.0139044,-0.138237,0.136593,-0.0140717,-30.3853,381.606)">
        <path d="M1053,1493.48C1058.11,1495.66 1060.33,1498.96 1059.05,1503.76C1058.03,1507.52 1055.62,1507.89 1053,1504.86C1051.18,1502.75 1048.8,1500.56 1048.34,1498.1C1048.1,1496.83 1051.5,1494.88 1053,1493.48" style="fill:rgb(7,4,4);fill-rule:nonzero;"/>
    </g>
    <g transform="matrix(-0.0397976,0.132986,-0.131404,-0.0402766,325.619,147.847)">
        <path d="M751.3,1340.9C755.961,1342.12 760.326,1344.59 760.461,1349.55C760.604,1355.26 755.956,1356.37 751.3,1355.01C746.53,1353.62 743.806,1349.8 744.228,1344.91C744.559,1341.16 747.597,1339.89 751.3,1340.9" style="fill:rgb(7,4,4);fill-rule:nonzero;"/>
    </g>
    <g transform="matrix(-0.0565566,0.126615,-0.125109,-0.0572374,282.035,-118.041)">
        <path d="M1260.33,170.217C1265.8,171.146 1267.74,175.22 1267.8,179.836C1267.86,184.381 1266.6,189.245 1260.33,188.235C1255.35,187.442 1252.62,183.58 1252.56,178.733C1252.51,173.91 1254.45,169.968 1260.33,170.217" style="fill:rgb(7,4,4);fill-rule:nonzero;"/>
    </g>
    <g transform="matrix(0.129599,-0.0458794,0.0453338,0.131159,10.9726,36.5983)">
        <path d="M626.852,193.034C631.393,194.474 634.996,197.187 633.459,202.244C632.846,204.244 629.09,206.605 626.852,206.521C621.791,206.319 618.965,202.566 620.474,197.648C621.091,195.65 624.642,194.537 626.852,193.034" style="fill:rgb(7,4,4);fill-rule:nonzero;"/>
    </g>
    <g transform="matrix(-0.0389433,0.133245,-0.13166,-0.039412,166.436,-35.1538)">
        <path d="M662.2,253.521C667.235,255.351 669.379,259.145 668.838,264.23C668.437,267.982 665.824,269.794 662.2,268.89C656.999,267.597 654.158,263.737 655.471,258.701C656.038,256.529 659.864,255.209 662.2,253.521" style="fill:rgb(7,4,4);fill-rule:nonzero;"/>
    </g>
    <g transform="matrix(4.16667,0,0,4.16667,-2238.97,-2950.64)">
        <clipPath id="_clip1">
            <path d="M563.049,751.218L576.182,742.51L582.402,751.891L569.268,760.599L563.049,751.218Z" clip-rule="nonzero"/>
        </clipPath>
        <g clip-path="url(#_clip1)">
            <g>
                <clipPath id="_clip2">
                    <path d="M554.01,757.211L575.898,742.698L583.777,754.581L561.888,769.094L554.01,757.211Z" clip-rule="nonzero"/>
                </clipPath>
                <g clip-path="url(#_clip2)">
                    <g>
                        <clipPath id="_clip3">
                            <path d="M554.01,757.211L575.898,742.698L583.777,754.581L561.888,769.094L554.01,757.211Z" clip-rule="nonzero"/>
                        </clipPath>
                        <g clip-path="url(#_clip3)">
                            <g transform="matrix(0.00852033,0.0142293,-0.0142523,0.00853713,569.8,729.099)">
                                <path d="M1281.6,349.769C1297.6,354.321 1312.61,357.694 1312.29,377.28C1312.03,393.759 1295,412.22 1281.6,409.042C1264.67,405.025 1259.78,390.644 1259.54,375.319C1259.31,360.224 1267.59,351.394 1281.6,349.769" style="fill-rule:nonzero;"/>
                            </g>
                            <g transform="matrix(0.0138465,-0.00918082,-0.00916508,-0.0138227,554.434,757.822)">
                                <path d="M847.887,-0.004C856.043,31.582 870.207,38.711 891.918,44.805C887.793,19.207 869.414,15.664 847.887,-0.004" style="fill-rule:nonzero;"/>
                            </g>
                            <g transform="matrix(-0.0166007,0.000399599,-0.000373638,-0.016589,581.13,757.629)">
                                <path d="M807.073,247.625C810.037,248.431 812.485,248.418 812.874,249.308C818.942,263.13 820.795,276.617 807.073,287.22C805.558,288.391 799.89,287.257 798.921,285.587C790.062,270.287 798.563,259.026 807.073,247.625" style="fill-rule:nonzero;"/>
                            </g>
                            <g transform="matrix(0.0138465,-0.00918082,-0.00916508,-0.0138227,556.607,761.098)">
                                <path d="M1347.53,114.879C1348.41,139.437 1352.97,152.781 1368.96,166.973C1371.66,145.207 1364.55,132.898 1347.53,114.879" style="fill-rule:nonzero;"/>
                            </g>
                            <g transform="matrix(0.0138465,-0.00918082,-0.00916508,-0.0138227,559.905,766.073)">
                                <path d="M848.246,340.301C840.379,316.91 833.566,305.543 813.953,301.414C816.211,320.172 825.504,329.629 848.246,340.301" style="fill-rule:nonzero;"/>
                            </g>
                            <g transform="matrix(0.0138465,-0.00918082,-0.00916508,-0.0138227,565.004,773.763)">
                                <path d="M1274.96,615.984C1278.17,600.988 1272.82,591.832 1261.86,582.105C1256.48,597.906 1258.37,608.355 1274.96,615.984" style="fill-rule:nonzero;"/>
                            </g>
                            <g transform="matrix(0.0138465,-0.00918082,-0.00916508,-0.0138227,557.657,762.682)">
                                <path d="M1389.12,212.145C1383.13,203.766 1377.15,195.391 1369.22,184.289C1361.8,207.488 1377.02,208.539 1389.12,212.145" style="fill-rule:nonzero;"/>
                            </g>
                            <g transform="matrix(-0.0160633,0.00422896,-0.00420641,-0.0160459,589.531,755.9)">
                                <path d="M1003.7,397.832C1007.92,396.552 1014.72,393.621 1015.43,398.77C1016.54,406.867 1010.62,413.698 1003.7,418.071C1001.88,419.221 996.328,418.134 995.4,416.465C990.229,407.122 995.684,401.746 1003.7,397.832" style="fill-rule:nonzero;"/>
                            </g>
                        </g>
                    </g>
                </g>
            </g>
        </g>
    </g>
    <g transform="matrix(4.16667,0,0,4.16667,-2238.97,-2950.64)">
        <clipPath id="_clip4">
            <path d="M563.049,751.218L576.182,742.51L582.402,751.891L569.268,760.599L563.049,751.218Z" clip-rule="nonzero"/>
        </clipPath>
        <g clip-path="url(#_clip4)">
            <g>
                <clipPath id="_clip5">
                    <path d="M554.01,757.211L575.898,742.698L583.777,754.581L561.888,769.094L554.01,757.211Z" clip-rule="nonzero"/>
                </clipPath>
                <g clip-path="url(#_clip5)">
                    <g>
                        <clipPath id="_clip6">
                            <path d="M554.01,757.211L575.898,742.698L583.777,754.581L561.888,769.094L554.01,757.211Z" clip-rule="nonzero"/>
                        </clipPath>
                        <g clip-path="url(#_clip6)">
                            <g>
                                <clipPath id="_clip7">
                                    <path d="M578.773,747.479L578.981,747.341L579.146,747.59L578.938,747.728L578.773,747.479Z" clip-rule="nonzero"/>
                                </clipPath>
                                <g clip-path="url(#_clip7)">
                                    <g transform="matrix(-0.0133694,-0.00982034,0.00984803,-0.013376,596.596,767.591)">
                                        <clipPath id="_clip8">
                                            <path d="M1584.05,340.625L1578.93,354.59L1562.04,348.397L1567.15,334.434L1584.05,340.625Z" clip-rule="nonzero"/>
                                        </clipPath>
                                        <g clip-path="url(#_clip8)">
                                            <path d="M1573.42,337.423C1575.73,341.148 1578.06,344.876 1580.39,348.615C1577.98,350.021 1574.04,353.118 1573.42,352.558C1570.18,349.624 1567.79,345.756 1565.11,342.218C1567.53,340.825 1569.95,339.422 1573.42,337.423" style="fill-rule:nonzero;"/>
                                        </g>
                                    </g>
                                </g>
                            </g>
                        </g>
                    </g>
                </g>
            </g>
        </g>
    </g>
    <g transform="matrix(4.16667,0,0,4.16667,-2238.97,-2950.64)">
        <clipPath id="_clip9">
            <path d="M563.049,751.218L576.182,742.51L582.402,751.891L569.268,760.599L563.049,751.218Z" clip-rule="nonzero"/>
        </clipPath>
        <g clip-path="url(#_clip9)">
            <g>
                <clipPath id="_clip10">
                    <path d="M554.01,757.211L575.898,742.698L583.777,754.581L561.888,769.094L554.01,757.211Z" clip-rule="nonzero"/>
                </clipPath>
                <g clip-path="url(#_clip10)">
                    <g>
                        <clipPath id="_clip11">
                            <path d="M554.01,757.211L575.898,742.698L583.777,754.581L561.888,769.094L554.01,757.211Z" clip-rule="nonzero"/>
                        </clipPath>
                        <g clip-path="url(#_clip11)">
                            <g transform="matrix(-0.0147458,0.00765264,-0.00763446,-0.0147239,596.774,736.169)">
                                <path d="M1431.2,101.727C1433.24,103.646 1436.56,105.301 1437.02,107.55C1437.78,111.256 1434.9,113.207 1431.2,112.119C1429.94,111.747 1428.75,110.193 1428.11,108.891C1426.28,105.206 1427.46,102.75 1431.2,101.727" style="fill-rule:nonzero;"/>
                            </g>
                            <g transform="matrix(0.00536231,0.0156963,-0.0157153,0.00538354,565.825,734.034)">
                                <path d="M978.105,132.16C982.968,134.618 984.83,138.71 984.253,143.928C983.808,147.941 980.368,150.933 978.105,148.86C974.929,145.948 972.823,141.124 971.845,136.769C970.937,132.711 974.029,130.949 978.105,132.16" style="fill-rule:nonzero;"/>
                            </g>
                            <g transform="matrix(-0.0150857,0.00695777,-0.00693859,-0.0150647,586.145,751.777)">
                                <path d="M927.47,324.252C931.648,324.657 932.847,326.914 930.705,330.823C929.981,332.148 928.799,333.577 927.47,334.158C923.672,335.821 920.595,334.203 921.368,330.466C921.864,328.077 925.328,326.299 927.47,324.252" style="fill-rule:nonzero;"/>
                            </g>
                        </g>
                    </g>
                </g>
            </g>
        </g>
    </g>
</svg>
