<?xml version="1.0" encoding="UTF-8" standalone="no"?>
<!DOCTYPE svg PUBLIC "-//W3C//DTD SVG 1.1//EN" "http://www.w3.org/Graphics/SVG/1.1/DTD/svg11.dtd">
<svg width="100%" height="100%" viewBox="0 0 294 250" version="1.1" xmlns="http://www.w3.org/2000/svg" xmlns:xlink="http://www.w3.org/1999/xlink" xml:space="preserve" xmlns:serif="http://www.serif.com/" style="fill-rule:evenodd;clip-rule:evenodd;stroke-linejoin:round;stroke-miterlimit:2;">
    <g transform="matrix(0.587787,0,0,-0.586631,0,248.79)">
        <path d="M496.4,293.7L250,2.8L3.6,293.7L113.5,421.3L386.5,421.3L496.4,293.7Z" style="fill:white;fill-rule:nonzero;"/>
    </g>
    <g transform="matrix(0.587787,0,0,-0.586631,0,249.67)">
        <path d="M387.7,425.6L112.3,425.6L0,295.2L250,0L498.5,293.4L500,295.2L387.7,425.6ZM389.2,415.4L490.3,298L389.2,298L389.2,415.4ZM383.7,420.1L383.7,301.5L255.4,420.1L383.7,420.1ZM379.4,297.9L120.6,297.9L250,417.5L379.4,297.9ZM116.3,420.1L244.6,420.1L116.3,301.5L116.3,420.1ZM110.8,415.4L110.8,298L9.7,298L110.8,415.4ZM9.6,292.4L111.8,292.4L238.7,22L9.6,292.4ZM117.9,292.4L382.1,292.4L250,10.8L117.9,292.4ZM261.4,22L388.3,292.4L490.5,292.4L261.4,22Z" style="fill-rule:nonzero;"/>
    </g>
    <g transform="matrix(4.16667,0,0,4.16667,-3193.89,-2942.32)">
        <clipPath id="_clip1">
            <path d="M828.534,737.261L786.282,754.865L773.295,723.696L815.547,706.092L828.534,737.261Z" clip-rule="nonzero"/>
        </clipPath>
        <g clip-path="url(#_clip1)">
            <g>
                <clipPath id="_clip2">
                    <path d="M828.534,737.261L786.282,754.865L773.295,723.696L815.547,706.092L828.534,737.261Z" clip-rule="nonzero"/>
                </clipPath>
                <g clip-path="url(#_clip2)">
                    <g>
                        <clipPath id="_clip3">
                            <path d="M828.534,737.261L786.282,754.865L773.295,723.696L815.547,706.092L828.534,737.261Z" clip-rule="nonzero"/>
                        </clipPath>
                        <g clip-path="url(#_clip3)">
                            <g transform="matrix(-0.0253213,0.0105505,0.0105569,0.0253366,806.153,683.79)">
                                <path d="M191.578,1015.08C198.563,1062.21 230.152,1080.56 264.5,1092.65C275.004,1096.34 291.129,1085.73 303.965,1080.06C307.758,1078.39 306.418,1071.08 303.922,1066.69C295.668,1052.19 280.629,1036.59 267.59,1040.27C242.074,1047.49 228.648,1030.48 210.52,1022.41C206.148,1020.46 201.594,1018.93 191.578,1015.08" style="fill-rule:nonzero;"/>
                            </g>
                            <g transform="matrix(-0.0253213,0.0105505,0.0105569,0.0253366,810.198,693.499)">
                                <path d="M1116.97,811.863C1102.78,834 1088.6,853.508 1093.33,879.637C1094.4,885.559 1094.83,891.762 1096.98,897.281C1100.55,906.453 1105.61,916.371 1117.26,914.633C1128.97,912.887 1130.91,902.203 1130.97,892.156C1131.01,886.16 1130.33,879.969 1128.76,874.195C1125.1,860.75 1110.45,848.43 1127.62,833.32C1130.87,830.461 1124.84,820.027 1116.97,811.863" style="fill-rule:nonzero;"/>
                            </g>
                            <g transform="matrix(0.0260362,0.00865956,-0.00864473,0.0260436,773.689,704.327)">
                                <path d="M1036.31,639.27C1068.09,654.811 1056.25,680.218 1055.56,701.72C1055.24,711.715 1045.85,714.63 1036.31,713.548C1028.07,712.615 1020.75,713.047 1017.36,701.389C1009.74,675.191 1024.12,658.401 1036.31,639.27" style="fill-rule:nonzero;"/>
                            </g>
                            <g transform="matrix(-0.0253213,0.0105505,0.0105569,0.0253366,816.963,709.734)">
                                <path d="M1093.19,526.699C1081.81,523.551 1072.77,520.441 1063.49,518.621C1049.06,515.793 1040.04,524.398 1035.31,536.152C1029.16,551.453 1042.04,557.41 1052.17,563.73C1064.89,571.664 1076.17,567.758 1083.32,556.16C1088.17,548.297 1089.49,538.262 1093.19,526.699" style="fill-rule:nonzero;"/>
                            </g>
                            <g transform="matrix(-0.0253213,0.0105505,0.0105569,0.0253366,808.712,689.933)">
                                <path d="M78.52,960.98C79.855,954.805 76.906,950.27 73.141,947.832C54.992,936.09 38.207,923.098 23.746,906.727C18.203,900.453 7.023,898.477 1.484,906.961C-2.711,913.391 2.637,922.277 9.391,924.906C30.543,933.137 41.57,954.09 60.891,964.137C67.023,967.324 74.711,970.52 78.52,960.98" style="fill-rule:nonzero;"/>
                            </g>
                            <g transform="matrix(-0.0253213,0.0105505,0.0105569,0.0253366,807.031,685.897)">
                                <path d="M75.004,1053.39C59.902,1016.37 25.977,1006.12 2.488,974.875C11.578,1016.68 37.016,1043.36 75.004,1053.39" style="fill-rule:nonzero;"/>
                            </g>
                            <g transform="matrix(-0.0150594,-0.0229472,0.022931,-0.015056,795.389,761.024)">
                                <path d="M920.326,680.558C933.267,683.034 949.274,702.567 945.38,712.145C940.843,723.319 929.021,721.741 920.326,722.489C910.02,723.371 900.256,703.22 903.5,690.841C905.368,683.708 912.864,679.129 920.326,680.558" style="fill-rule:nonzero;"/>
                            </g>
                            <g transform="matrix(0.0261328,0.00836297,-0.00834823,0.0261403,798.474,689.805)">
                                <path d="M543.611,901.432C542.809,924.465 558.29,944.522 553.484,967.657C552.226,973.712 550.345,980.728 543.611,981.405C534.139,982.358 532.125,974.238 531.1,966.877C527.9,943.881 538.197,923.381 543.611,901.432" style="fill-rule:nonzero;"/>
                            </g>
                            <g transform="matrix(-0.0253213,0.0105505,0.0105569,0.0253366,809.416,691.621)">
                                <path d="M964.773,872.336C966.426,891.441 966.645,902.363 968.516,912.992C970.086,921.902 975.582,928.938 985.363,929.785C988.258,930.035 992.742,927.332 994.289,924.691C998.508,917.504 995.793,910.352 991.137,904.305C984.523,895.723 977.379,887.547 964.773,872.336" style="fill-rule:nonzero;"/>
                            </g>
                        </g>
                    </g>
                </g>
            </g>
        </g>
    </g>
    <g transform="matrix(4.16667,0,0,4.16667,-3193.89,-2942.32)">
        <clipPath id="_clip4">
            <path d="M828.534,737.261L786.282,754.865L773.295,723.696L815.547,706.092L828.534,737.261Z" clip-rule="nonzero"/>
        </clipPath>
        <g clip-path="url(#_clip4)">
            <g>
                <clipPath id="_clip5">
                    <path d="M828.534,737.261L786.282,754.865L773.295,723.696L815.547,706.092L828.534,737.261Z" clip-rule="nonzero"/>
                </clipPath>
                <g clip-path="url(#_clip5)">
                    <g>
                        <clipPath id="_clip6">
                            <path d="M828.534,737.261L786.282,754.865L773.295,723.696L815.547,706.092L828.534,737.261Z" clip-rule="nonzero"/>
                        </clipPath>
                        <g clip-path="url(#_clip6)">
                            <g>
                                <clipPath id="_clip7">
                                    <path d="M801.342,713.61L800.456,713.979L799.886,712.611L800.772,712.242L801.342,713.61Z" clip-rule="nonzero"/>
                                </clipPath>
                                <g clip-path="url(#_clip7)">
                                    <g transform="matrix(-0.0253213,0.0105505,0.0105569,0.0253366,803.043,676.326)">
                                        <clipPath id="_clip8">
                                            <path d="M579.999,1230.02L615.001,1230.02L614.999,1176.24L580,1176.24L579.999,1230.02Z" clip-rule="nonzero"/>
                                        </clipPath>
                                        <g clip-path="url(#_clip8)">
                                            <path d="M614.777,1229.78C612.512,1202.09 602.484,1187.46 580.621,1176.24C580.883,1201.32 587.152,1218.51 614.777,1229.78" style="fill-rule:nonzero;"/>
                                        </g>
                                    </g>
                                </g>
                            </g>
                        </g>
                    </g>
                </g>
            </g>
        </g>
    </g>
    <g transform="matrix(4.16667,0,0,4.16667,-3193.89,-2942.32)">
        <clipPath id="_clip9">
            <path d="M828.534,737.261L786.282,754.865L773.295,723.696L815.547,706.092L828.534,737.261Z" clip-rule="nonzero"/>
        </clipPath>
        <g clip-path="url(#_clip9)">
            <g>
                <clipPath id="_clip10">
                    <path d="M828.534,737.261L786.282,754.865L773.295,723.696L815.547,706.092L828.534,737.261Z" clip-rule="nonzero"/>
                </clipPath>
                <g clip-path="url(#_clip10)">
                    <g>
                        <clipPath id="_clip11">
                            <path d="M828.534,737.261L786.282,754.865L773.295,723.696L815.547,706.092L828.534,737.261Z" clip-rule="nonzero"/>
                        </clipPath>
                        <g clip-path="url(#_clip11)">
                            <g transform="matrix(0.0226114,0.0155514,-0.0155351,0.0226144,800.924,706.914)">
                                <path d="M633.684,540.317C646.737,550.834 648.807,563.167 644.873,577.062C643.225,582.894 641.215,589.478 633.684,589.48C624.694,589.479 621.717,582.527 620.245,575.054C617.416,560.714 622.184,549.466 633.684,540.317" style="fill-rule:nonzero;"/>
                            </g>
                            <g transform="matrix(-0.0253213,0.0105505,0.0105569,0.0253366,812.413,698.813)">
                                <path d="M992.941,738.949C990.527,741.996 987.398,744.383 986.418,747.453C982.199,760.699 985.805,771.406 998.867,777.348C1003.66,779.527 1007.97,776.812 1010.96,772.34C1019.45,759.66 1009.42,752.301 1002.66,744.328C1000.55,741.836 996.602,740.895 992.941,738.949" style="fill-rule:nonzero;"/>
                            </g>
                            <g transform="matrix(-0.0253213,0.0105505,0.0105569,0.0253366,818.685,713.866)">
                                <path d="M1335.86,479.105C1343.37,471.754 1362.12,466.215 1340.38,453.91C1331.64,448.965 1321.22,445.273 1315.71,457.313C1309.89,469.996 1319.72,474.082 1329.83,476.617C1332.16,477.199 1334.53,477.645 1336.88,478.152L1335.86,479.105" style="fill-rule:nonzero;"/>
                            </g>
                            <g transform="matrix(-0.0253213,0.0105505,0.0105569,0.0253366,807.332,686.619)">
                                <path d="M222.09,984.734C227.914,993.496 233.203,1002.7 239.781,1010.86C243.383,1015.32 249.766,1019.04 255.32,1014.3C261.828,1008.74 256.566,1003.07 252.313,999.504C244.215,992.695 235.238,986.945 226.625,980.746C225.113,982.074 223.602,983.406 222.09,984.734" style="fill-rule:nonzero;"/>
                            </g>
                            <g transform="matrix(-0.0162308,-0.0221337,0.0221173,-0.0162282,800.676,761.232)">
                                <path d="M900.179,584.296C909.866,588.275 915.349,594.948 912.982,606.127C911.533,612.974 906.643,616.527 900.179,614.922C889.227,612.2 885.582,603.634 886.915,593.224C887.821,586.125 893.644,584.411 900.179,584.296" style="fill-rule:nonzero;"/>
                            </g>
                            <g transform="matrix(-0.0104639,-0.0253751,0.0253599,-0.0104575,812.611,767.46)">
                                <path d="M874.332,64.69C884.15,67.392 886.939,74.823 886.152,83.924C885.568,90.692 881.404,95.004 874.332,94.495C864.329,93.778 858.898,88.051 860.169,77.859C861.14,70.09 865.139,64.403 874.332,64.69" style="fill-rule:nonzero;"/>
                            </g>
                            <g transform="matrix(-0.00943386,-0.0257758,0.0257608,-0.00942682,797.477,777.027)">
                                <path d="M1228.13,300.679C1237.54,303.096 1245.56,304.686 1243.46,314.339C1241.86,321.666 1236.28,327.128 1228.13,325.832C1222.27,324.909 1217.28,320.836 1217.12,313.914C1216.91,304.985 1223.13,302.388 1228.13,300.679" style="fill-rule:nonzero;"/>
                            </g>
                            <g transform="matrix(0.00339468,0.027236,-0.027223,0.00338445,791.514,702.819)">
                                <path d="M1484.3,316.573C1494.74,321.736 1494.07,329.614 1494.15,336.585C1494.24,344.502 1496.71,356.548 1484.3,355.687C1470.24,354.729 1477.54,343.74 1478.7,336.133C1479.68,329.698 1473.2,321.607 1484.3,316.573" style="fill-rule:nonzero;"/>
                            </g>
                            <g transform="matrix(-0.00019003,0.0274448,-0.0274332,-0.000201869,803.464,707.368)">
                                <path d="M1234.94,345.099C1239.65,344.497 1244.29,346.263 1244.23,349.67C1244.07,358.704 1247.33,369.878 1234.94,374.216C1231.34,375.488 1226.99,373.688 1225.85,370.003C1222.54,359.378 1228.3,351.768 1234.94,345.099" style="fill-rule:nonzero;"/>
                            </g>
                            <g transform="matrix(-0.0063515,-0.0267025,0.0266885,-0.00634276,788.516,769.418)">
                                <path d="M1118.93,487.259C1128.13,488.406 1129.38,494.495 1129.89,500.459C1130.55,508.133 1129.42,515.48 1118.93,514.076C1112.51,513.219 1107.62,508.683 1107.02,502.448C1106.18,493.621 1114.8,491.588 1118.93,487.259" style="fill-rule:nonzero;"/>
                            </g>
                            <g transform="matrix(-0.0115749,-0.024888,0.0248724,-0.0115691,781.136,759.066)">
                                <path d="M987.5,937.008C991.023,940.755 992.337,941.505 992.566,942.499C994.69,951.815 998.285,961.786 987.5,968.127C985.357,969.385 979.215,968.053 978.048,966.074C971.04,954.191 977.453,946.045 987.5,937.008" style="fill-rule:nonzero;"/>
                            </g>
                            <g transform="matrix(-0.024025,0.0132397,-0.0132444,-0.0240409,827.716,733.049)">
                                <path d="M1384.31,386.104C1394.58,386.829 1397.47,391.667 1396.31,398.119C1395.24,404.136 1391.43,408.78 1384.31,408.368C1377.94,408.006 1372.48,405.512 1372.65,398.281C1372.87,389.377 1380.81,388.487 1384.31,386.104" style="fill-rule:nonzero;"/>
                            </g>
                            <g transform="matrix(-0.0253213,0.0105505,0.0105569,0.0253366,819.353,715.469)">
                                <path d="M1336.88,414.871C1336.24,423.066 1331.11,431.184 1336.62,439.477C1339.65,444.047 1344.27,446.227 1348.97,444.363C1353.96,442.391 1354.69,437.211 1353.82,432.059C1352.11,421.84 1343,419.941 1335.83,415.859C1335.86,415.824 1336.88,414.871 1336.88,414.871" style="fill-rule:nonzero;"/>
                            </g>
                            <g transform="matrix(-0.0160774,-0.0222454,0.0222291,-0.0160747,814.574,782.726)">
                                <path d="M1395.39,18.322C1402.7,20.147 1406.34,24.197 1405.2,31.293C1404.35,36.663 1400.65,39.717 1395.39,40.061C1387.82,40.571 1384.05,35.305 1383.97,29.049C1383.89,22.208 1389.22,18.903 1395.39,18.322" style="fill-rule:nonzero;"/>
                            </g>
                            <g transform="matrix(0.0271801,-0.0037126,0.00372266,0.0271932,766.657,725.624)">
                                <path d="M1040.21,495.668C1045.79,494.36 1050.55,495.471 1050.78,501.386C1051.04,507.933 1046.87,512.31 1040.21,513.444C1035.44,514.259 1029.83,514.353 1028.18,508.96C1024.9,498.317 1034.98,498.786 1040.21,495.668" style="fill-rule:nonzero;"/>
                            </g>
                            <g transform="matrix(-0.0103556,-0.0254195,0.0254043,-0.0103491,794.12,779.696)">
                                <path d="M1342.48,385.341C1348.95,386.552 1353.41,390.235 1352.69,397.202C1352.13,402.527 1347.82,405.132 1342.48,404.533C1337.02,403.928 1334,400.269 1334.08,394.889C1334.17,389.747 1336.37,385.749 1342.48,385.341" style="fill-rule:nonzero;"/>
                            </g>
                            <g transform="matrix(-0.0125689,-0.024401,0.0243852,-0.0125637,800.94,785.713)">
                                <path d="M1475.56,238.181C1481.22,238.338 1484.06,241.951 1484.63,246.923C1485.37,253.403 1483.24,259.261 1475.56,258.529C1470.57,258.053 1468.06,253.092 1467.68,248.065C1467.27,242.584 1470.13,239.246 1475.56,238.181" style="fill-rule:nonzero;"/>
                            </g>
                            <g transform="matrix(-0.0253213,0.0105505,0.0105569,0.0253366,804.395,679.572)">
                                <path d="M113.395,1129.72C116.828,1142.83 128.215,1144.22 138.242,1148.2C130.316,1133.13 130.316,1133.13 113.395,1129.72" style="fill-rule:nonzero;"/>
                            </g>
                            <g transform="matrix(-0.0253213,0.0105505,0.0105569,0.0253366,804.821,680.592)">
                                <path d="M205.691,1108.97C206.703,1121.78 215.207,1125.67 223.188,1129.7C226.621,1129.41 227.98,1127.73 226.809,1125C223.008,1116.18 218.645,1107.94 205.691,1108.97" style="fill-rule:nonzero;"/>
                            </g>
                            <g transform="matrix(-0.0265854,0.00676142,-0.00676994,-0.0265996,826.25,739.157)">
                                <path d="M270.841,659.985C276.066,659.376 280.929,660.822 281.079,666.312C281.241,672.502 276.635,676.956 270.841,678.501C268.178,679.212 262.724,677.856 262.015,676.065C258.746,667.776 264.494,663.466 270.841,659.985" style="fill-rule:nonzero;"/>
                            </g>
                            <g transform="matrix(-0.0109327,-0.0251767,0.0251613,-0.0109266,812.126,777.024)">
                                <path d="M1115.23,-1.461C1120.47,0.387 1123.27,4.167 1122.74,9.633C1122.34,13.744 1119.07,16.626 1115.23,16.119C1109.5,15.366 1107.32,10.653 1107.82,5.297C1108.2,1.282 1111.1,-1.022 1115.23,-1.461" style="fill-rule:nonzero;"/>
                            </g>
                            <g transform="matrix(-0.0118025,-0.0247808,0.0247652,-0.0117969,794.179,763.071)">
                                <path d="M960.232,593.551C965.08,593.499 970.113,593.984 970.26,600.144C970.412,606.526 967.029,611.783 960.232,611.468C955.647,611.255 952.237,607.077 951.672,602.011C950.982,595.836 955.485,594.465 960.232,593.551" style="fill-rule:nonzero;"/>
                            </g>
                        </g>
                    </g>
                </g>
            </g>
        </g>
    </g>
    <g transform="matrix(4.16667,0,0,4.16667,-3193.89,-2942.32)">
        <clipPath id="_clip12">
            <path d="M828.534,737.261L786.282,754.865L773.295,723.696L815.547,706.092L828.534,737.261Z" clip-rule="nonzero"/>
        </clipPath>
        <g clip-path="url(#_clip12)">
            <g>
                <clipPath id="_clip13">
                    <path d="M828.534,737.261L786.282,754.865L773.295,723.696L815.547,706.092L828.534,737.261Z" clip-rule="nonzero"/>
                </clipPath>
                <g clip-path="url(#_clip13)">
                    <g>
                        <clipPath id="_clip14">
                            <path d="M828.534,737.261L786.282,754.865L773.295,723.696L815.547,706.092L828.534,737.261Z" clip-rule="nonzero"/>
                        </clipPath>
                        <g clip-path="url(#_clip14)">
                            <g transform="matrix(-0.00789851,-0.0262868,0.0262722,-0.00789061,795.981,781.905)">
                                <path d="M1329.5,242.794C1335.11,243.279 1338.18,246.661 1338.37,251.959C1338.57,257.621 1335.14,260.81 1329.5,260.505C1325.55,260.293 1322.99,257.471 1322.6,253.538C1322.07,248.326 1324.05,244.34 1329.5,242.794" style="fill-rule:nonzero;"/>
                            </g>
                            <g transform="matrix(-0.0268661,0.00554315,-0.00555231,-0.0268799,828.529,744.321)">
                                <path d="M1287.85,372.358C1291.93,372.369 1295.03,374.231 1295.58,378.248C1296.32,383.789 1293,387.146 1287.85,388.082C1284.01,388.782 1280.22,387.264 1280.22,382.8C1280.22,377.906 1282.61,373.846 1287.85,372.358" style="fill-rule:nonzero;"/>
                            </g>
                            <g transform="matrix(0.0254959,-0.0101213,0.0101279,0.0255111,743.399,710.374)">
                                <path d="M1250.78,1028.07C1254.87,1029.08 1256.36,1032.29 1256.92,1035.9C1257.74,1041.11 1256.11,1046.05 1250.78,1047.05C1246.93,1047.77 1244.56,1043.6 1244.55,1039.84C1244.55,1035.06 1245.68,1030.37 1250.78,1028.07" style="fill-rule:nonzero;"/>
                            </g>
                            <g transform="matrix(-0.0164978,-0.0219353,0.0219189,-0.0164954,799.384,781.613)">
                                <path d="M1498.7,479.552C1504.83,480.292 1506.23,484.502 1505.47,489.632C1504.92,493.259 1502.86,496.57 1498.7,496.59C1493.37,496.623 1489.47,493.55 1489.54,488.21C1489.61,483.006 1493.28,479.95 1498.7,479.552" style="fill-rule:nonzero;"/>
                            </g>
                            <g transform="matrix(0.0247722,-0.0117824,0.011788,0.0247877,756.081,751.587)">
                                <path d="M1311.43,291.005C1315.21,291.121 1318.56,292.634 1319.03,296.474C1319.68,301.771 1316.77,305.633 1311.43,306.273C1307.81,306.713 1304.6,304.416 1303.88,300.638C1302.82,294.914 1306.28,292.144 1311.43,291.005" style="fill-rule:nonzero;"/>
                            </g>
                            <g transform="matrix(-0.0170053,-0.021544,0.0215275,-0.0170033,800.187,766.125)">
                                <path d="M1056.76,598.616C1061.97,600.378 1064.65,604.125 1064.16,609.511C1063.78,613.608 1060.89,616.248 1056.76,615.287C1050.16,613.735 1045.92,609.515 1048,602.296C1049.08,598.569 1052.97,597.811 1056.76,598.616" style="fill-rule:nonzero;"/>
                            </g>
                            <g transform="matrix(-0.00391044,-0.0271669,0.0271537,-0.00390047,776.66,790.077)">
                                <path d="M1647.34,430.395C1651.14,431.264 1653.97,433.488 1654.06,437.401C1654.17,441.584 1651.4,443.746 1647.34,442.443C1643.57,441.229 1641.56,437.807 1642.23,434.041C1642.49,432.563 1645.56,431.588 1647.34,430.395" style="fill-rule:nonzero;"/>
                            </g>
                            <g transform="matrix(-0.0253213,0.0105505,0.0105569,0.0253366,811.941,697.681)">
                                <path d="M1327.47,779.531C1326.48,778.918 1325.51,778.27 1324.49,777.695C1318.14,774.109 1311.53,770.52 1307.74,780.484C1306.4,784.02 1308.58,787.457 1312.07,788.82C1321.86,792.648 1323.55,784.52 1326.59,778.523L1327.47,779.531" style="fill-rule:nonzero;"/>
                            </g>
                            <g transform="matrix(0.0110638,0.0251193,-0.0251039,0.0110578,793.112,703.329)">
                                <path d="M1158.17,461.233C1163.35,462.556 1165.99,466.141 1165.5,471.242C1165.12,475.247 1161.34,477.281 1158.17,475.807C1155.54,474.581 1153.06,471.113 1152.34,468.188C1151.43,464.477 1154.01,461.728 1158.17,461.233" style="fill-rule:nonzero;"/>
                            </g>
                            <g transform="matrix(-0.0106972,-0.0252776,0.0252623,-0.010691,797.031,763.606)">
                                <path d="M936.226,486.558C941.312,488.004 944.692,491.218 943.967,496.648C943.421,500.742 939.583,502.479 936.226,500.636C933.5,499.14 930.814,495.946 930.003,492.984C928.846,488.778 931.925,486.592 936.226,486.558" style="fill-rule:nonzero;"/>
                            </g>
                            <g transform="matrix(-0.0253213,0.0105505,0.0105569,0.0253366,811.852,697.468)">
                                <path d="M1326.59,786.934C1327.7,787.445 1328.77,788.066 1329.92,788.445C1335.54,790.301 1341.7,793.98 1345.16,785.68C1345.64,784.531 1343.21,780.969 1341.46,780.316C1334.19,777.598 1330.04,781.566 1327.51,787.984C1327.47,787.941 1326.59,786.934 1326.59,786.934" style="fill-rule:nonzero;"/>
                            </g>
                            <g transform="matrix(-0.0255961,0.00986507,-0.00987184,-0.0256112,828.342,737.652)">
                                <path d="M407.395,305.604C411.028,305.288 414.785,305.769 414.624,310.247C414.482,314.128 411.102,316.579 407.395,316.784C405.592,316.887 402.411,314.976 402.026,313.435C401.04,309.472 403.432,306.743 407.395,305.604" style="fill-rule:nonzero;"/>
                            </g>
                            <g transform="matrix(0.0255122,-0.0100803,0.0100869,0.0255273,798.74,727.434)">
                                <path d="M433.975,364.03C435.808,365.301 438.724,366.243 439.279,367.948C440.63,372.115 438.001,375.086 433.975,375.438C432.142,375.601 428.693,373.539 428.415,372.036C427.695,368.174 429.918,365.195 433.975,364.03" style="fill-rule:nonzero;"/>
                            </g>
                            <g transform="matrix(-0.00395125,-0.027161,0.0271478,-0.00394129,810.939,734.779)">
                                <path d="M148.858,371.582C151.495,371.391 154.261,373.627 155.115,377.013C156.348,381.895 155.232,386.753 148.858,385.718C146.284,385.3 143.183,381.848 142.251,379.119C141.016,375.507 143.558,372.627 148.858,371.582" style="fill-rule:nonzero;"/>
                            </g>
                            <g transform="matrix(-0.0253498,0.010482,-0.0104884,-0.025365,828.439,737.353)">
                                <path d="M812.944,386.233C817.177,385.843 820.871,386.962 821.194,390.559C821.657,395.741 817.966,398.853 812.944,399.229C811.26,399.355 808.283,397.656 807.85,396.208C806.379,391.294 808.244,387.562 812.944,386.233" style="fill-rule:nonzero;"/>
                            </g>
                            <g transform="matrix(-0.00689397,-0.0265677,0.0265535,-0.00688552,793.187,770.285)">
                                <path d="M1094.72,398.075C1096.06,397.762 1099.12,401.217 1100.06,406.155C1100.9,410.6 1100.72,415.928 1094.72,416.922C1089.43,417.802 1085.41,414.507 1084.02,409.714C1082.59,404.807 1084.53,400.629 1094.72,398.075" style="fill-rule:nonzero;"/>
                            </g>
                            <g transform="matrix(-0.0239229,0.0134234,-0.0134279,-0.0239388,828.184,733.412)">
                                <path d="M1125.51,452.337C1129.11,452.759 1132.07,454.525 1132.1,458.261C1132.15,462.157 1129.26,464.399 1125.51,463.463C1123.66,463.008 1121.71,460.77 1120.92,458.873C1119.23,454.816 1121.75,452.96 1125.51,452.337" style="fill-rule:nonzero;"/>
                            </g>
                            <g transform="matrix(-0.0038542,-0.0271749,0.0271618,-0.00384419,802.241,741.949)">
                                <path d="M391.98,466.192C395.278,468.011 398.341,470.42 397.282,474.473C396.878,476.022 393.482,478.147 391.98,477.786C388.19,476.882 386.355,473.686 386.807,469.597C387.153,466.44 388.935,465.312 391.98,466.192" style="fill-rule:nonzero;"/>
                            </g>
                            <g transform="matrix(-0.00731372,-0.0264553,0.026441,-0.00730549,782.546,774.058)">
                                <path d="M1292.81,605.047C1296.78,605.405 1299.05,607.617 1298.86,611.581C1298.69,615.284 1296.47,618.272 1292.81,618.504C1287.3,618.842 1284.4,615.105 1285.06,610.041C1285.53,606.498 1289.13,605.056 1292.81,605.047" style="fill-rule:nonzero;"/>
                            </g>
                            <g transform="matrix(0.00195776,-0.0273747,0.0273639,0.00197032,772.355,765.793)">
                                <path d="M1195.63,612.997C1197.45,613.899 1200.47,614.458 1200.83,615.755C1201.92,619.652 1199.77,622.404 1195.63,621.788C1194,621.55 1191.58,618.98 1191.57,617.474C1191.56,615.987 1194.17,614.493 1195.63,612.997" style="fill-rule:nonzero;"/>
                            </g>
                            <g transform="matrix(-0.0259556,0.00887648,-0.00888383,-0.0259704,828.129,740.071)">
                                <path d="M1390.99,710.258C1392.64,711.457 1395.28,712.369 1395.72,713.914C1396.76,717.487 1395.2,720.716 1390.99,720.385C1389.75,720.285 1387.95,717.068 1387.9,715.239C1387.85,713.606 1389.88,711.92 1390.99,710.258" style="fill-rule:nonzero;"/>
                            </g>
                        </g>
                    </g>
                </g>
            </g>
        </g>
    </g>
</svg>
