<svg xmlns="http://www.w3.org/2000/svg" viewBox="0 0 32 32" fill="none" stroke="currentColor">
        <g>
          <path d="M10,10V8.62c0-.62.38-1.12.84-1.12h10.3c.47,0,.86.51.86,1.14V9.79"></path>
          <path d="M8.5,12V10.62A1.09,1.09,0,0,1,9.55,9.5H22.43a1.11,1.11,0,0,1,1.07,1.14V12"></path>
          <path d="M8.7,11.5H23.29a1.18,1.18,0,0,1,1.21,1.14v9.74a1.16,1.16,0,0,1-1.2,1.12H8.71A1.18,1.18,0,0,1,7.5,22.36V12.62A1.16,1.16,0,0,1,8.7,11.5Z"></path>
          <path d="M8.06,23.17l6.16-6.29,2.93,3.37,1.09-1.13L22.5,23.5"></path>
          <circle cx="19.43" cy="15.75" r="1.5" fill="currentColor" stroke="none"></circle>
        </g>
      </svg>