<?xml version="1.0" encoding="UTF-8" standalone="no"?>
<!DOCTYPE svg PUBLIC "-//W3C//DTD SVG 1.1//EN" "http://www.w3.org/Graphics/SVG/1.1/DTD/svg11.dtd">
<svg width="100%" height="100%" viewBox="0 0 2955 2955" version="1.1" xmlns="http://www.w3.org/2000/svg" xmlns:xlink="http://www.w3.org/1999/xlink" xml:space="preserve" xmlns:serif="http://www.serif.com/" style="fill-rule:evenodd;clip-rule:evenodd;stroke-linejoin:round;stroke-miterlimit:2;">
    <g transform="matrix(4.16667,0,0,4.16667,0,0)">
        <path d="M397.074,229.078L459.644,229.078L432.419,252.683C429.916,254.854 429.646,258.643 431.817,261.147C433.003,262.515 434.673,263.216 436.353,263.216C437.746,263.216 439.145,262.734 440.281,261.749L479.654,227.611C480.968,226.471 481.723,224.817 481.723,223.078C481.723,221.338 480.968,219.684 479.654,218.544L440.281,184.406C437.775,182.235 433.987,182.506 431.817,185.009C429.646,187.513 429.916,191.302 432.419,193.473L459.644,217.078L397.074,217.078C393.76,217.078 391.074,219.764 391.074,223.078C391.074,226.391 393.76,229.078 397.074,229.078Z" style="fill-rule:nonzero;"/>
        <path d="M252.851,252.683L225.626,229.078L288.197,229.078C291.51,229.078 294.197,226.391 294.197,223.078C294.197,219.764 291.51,217.078 288.197,217.078L225.626,217.078L252.851,193.473C255.355,191.302 255.625,187.513 253.454,185.009C251.284,182.505 247.494,182.235 244.99,184.406L205.617,218.544C204.302,219.684 203.547,221.338 203.547,223.078C203.547,224.817 204.302,226.471 205.617,227.611L244.99,261.749C246.125,262.734 247.525,263.216 248.917,263.216C250.597,263.216 252.267,262.515 253.454,261.147C255.625,258.643 255.355,254.854 252.851,252.683Z" style="fill-rule:nonzero;"/>
        <path d="M504.603,405.829L505.114,344.724C505.171,337.938 502.098,331.599 496.46,326.875C491.162,322.435 484.17,319.957 476.776,319.896C476.684,319.896 476.594,319.895 476.503,319.895C470.295,319.895 464.539,321.607 459.846,324.513C459,319.083 456.1,314.106 451.463,310.231C446.174,305.811 439.175,303.343 431.755,303.283C425.456,303.259 419.637,304.939 414.891,307.871C414.047,302.451 411.149,297.472 406.511,293.589C401.214,289.154 394.213,286.678 386.798,286.618C380.833,286.58 375.113,288.094 370.302,290.965L371.168,219.403C371.226,212.618 368.163,206.283 362.542,201.567C357.25,197.126 350.25,194.648 342.836,194.588C335.849,194.534 330.369,196.615 325.974,200.979C317.923,208.972 314.197,224.56 314.247,249.947L313.098,338.608L306.237,338.645C286.057,338.754 268.667,353.151 264.884,372.878C260.781,394.299 260.561,445.039 289.099,483.753C307.221,508.337 333.181,522.673 366.26,526.363C366.486,526.389 366.71,526.401 366.933,526.401C369.948,526.401 372.546,524.133 372.888,521.065C373.255,517.772 370.884,514.805 367.59,514.438C337.972,511.133 314.814,498.414 298.758,476.633C274.573,443.823 272.298,397.959 276.669,375.137C279.375,361.023 291.837,350.723 306.301,350.645L312.943,350.609L312.249,404.211C312.206,407.524 314.856,410.245 318.169,410.288L318.25,410.288C321.527,410.288 324.205,407.653 324.247,404.366L326.247,250.013C326.205,228.559 328.958,214.927 334.429,209.495C336.488,207.45 339.03,206.542 342.733,206.587C347.372,206.625 351.667,208.106 354.829,210.76C357.654,213.13 359.195,216.164 359.168,219.279L358.062,310.74C358.06,310.805 358.06,310.87 358.059,310.936C358.036,314.244 360.693,316.947 364.001,316.979L364.06,316.979C367.341,316.979 370.019,314.34 370.059,311.052L370.06,310.921C370.117,307.845 371.708,304.891 374.551,302.592C377.766,299.992 382.038,298.571 386.701,298.618C391.34,298.655 395.639,300.137 398.807,302.789C401.633,305.156 403.174,308.176 403.148,311.29L403.004,327.534C403.003,327.55 403.003,327.565 403.003,327.581C402.975,330.894 405.638,333.603 408.952,333.632L409.004,333.632C412.293,333.632 414.974,330.98 415.003,327.685L415.003,327.66C415.077,320.876 422.712,315.209 431.658,315.283C436.306,315.321 440.607,316.796 443.768,319.439C446.591,321.798 448.131,324.824 448.105,327.955L447.96,344.199C447.959,344.215 447.959,344.23 447.959,344.246C447.931,347.559 450.594,350.268 453.908,350.297L453.96,350.297C457.25,350.297 459.93,347.645 459.959,344.35L459.959,344.322C460.036,337.44 467.432,331.895 476.499,331.895C476.558,331.895 476.619,331.896 476.678,331.896C481.295,331.934 485.583,333.417 488.753,336.073C491.592,338.452 493.14,341.488 493.114,344.623L492.604,405.678L492.164,431.932C492.159,432.228 492.176,432.531 492.215,432.825C492.294,433.428 499.717,493.418 458.864,512.917C455.873,514.344 454.606,517.925 456.033,520.917C457.062,523.073 459.211,524.334 461.452,524.334C462.318,524.334 463.198,524.144 464.032,523.746C484.395,514.027 497.776,494.804 502.726,468.154C506.069,450.16 504.516,434.655 504.168,431.713L504.603,405.829Z" style="fill-rule:nonzero;"/>
    </g>
</svg>
