<svg viewBox="0 0 23 12" fill="none" xmlns="http://www.w3.org/2000/svg">
      <path d="M8.73298 2.06851C8.73651 2.37325 8.63125 2.66948 8.43566 2.90517C8.24008 3.14087 7.96668 3.30098 7.66348 3.35737C7.83478 3.36045 8.00368 3.39764 8.16008 3.46673C8.31648 3.53582 8.45715 3.63538 8.57367 3.75944C8.69019 3.88351 8.78016 4.02952 8.83819 4.18875C8.89622 4.34798 8.92112 4.51714 8.91139 4.68609C8.91139 5.59062 8.17402 6.35085 6.82082 6.35085C6.46513 6.36582 6.1107 6.30001 5.78479 6.15847C5.45889 6.01692 5.17019 5.80343 4.94092 5.5344L5.62941 4.87025C5.7672 5.03105 5.93836 5.16072 6.13131 5.25048C6.32426 5.34025 6.53448 5.388 6.74775 5.39052C6.85755 5.40222 6.96862 5.39041 7.07339 5.3559C7.17816 5.32139 7.27417 5.26499 7.3549 5.19055C7.43562 5.1161 7.49916 5.02535 7.5412 4.92447C7.58323 4.82359 7.60277 4.71495 7.59849 4.60594C7.59849 4.03745 7.28252 3.82934 6.7074 3.81534H6.25337L6.39138 3.0547H6.70742C7.19332 2.95714 7.49317 2.7008 7.49317 2.25273C7.49317 1.86047 7.20992 1.62843 6.76393 1.62843C6.56251 1.63122 6.36378 1.67455 6.17989 1.75578C5.996 1.837 5.83082 1.95442 5.69443 2.10085L5.0624 1.42038C5.30611 1.18404 5.59496 0.997941 5.91215 0.8729C6.22935 0.747859 6.56855 0.686375 6.91003 0.692026C8.09291 0.692011 8.73298 1.30833 8.73298 2.06851ZM13.5529 4.36596C13.566 4.62801 13.5238 4.88989 13.429 5.13498C13.3342 5.38007 13.1889 5.60301 13.0022 5.78966C12.8155 5.97631 12.5916 6.12257 12.3446 6.21918C12.0977 6.31579 11.8331 6.36063 11.5676 6.35085C10.1171 6.35085 9.49322 5.29443 9.49322 3.74171C9.49322 1.9087 10.3928 0.692011 11.8756 0.692011C12.3186 0.685751 12.7534 0.811168 13.1234 1.05199L12.6532 1.80464C12.4285 1.66972 12.1708 1.59779 11.9078 1.59654C11.292 1.59654 10.8948 2.12478 10.8222 3.0771C10.9692 2.91804 11.1482 2.79103 11.3477 2.70419C11.5472 2.61736 11.7629 2.5726 11.9809 2.5728C12.2081 2.5745 12.4324 2.62402 12.6387 2.71807C12.845 2.81212 13.0287 2.94854 13.1774 3.11822C13.3262 3.2879 13.4366 3.48695 13.5014 3.7021C13.5661 3.91726 13.5837 4.14357 13.5529 4.36596ZM12.2727 4.38193C12.2727 3.68545 12.0459 3.44548 11.6245 3.44548C11.4675 3.45354 11.3141 3.49574 11.1754 3.56906C11.0367 3.64238 10.9161 3.74502 10.8222 3.86966C10.8383 4.99826 11.0329 5.44628 11.5837 5.44628C12.0459 5.44627 12.2727 5.02215 12.2727 4.38193ZM18.1943 3.51725C18.1943 5.32632 17.4731 6.35086 16.128 6.35086C14.7828 6.35086 14.0616 5.32629 14.0616 3.51725C14.0616 1.70061 14.7828 0.692026 16.128 0.692026C17.4731 0.692011 18.1943 1.70061 18.1943 3.51725ZM15.3745 3.51725C15.3745 4.94997 15.5932 5.41441 16.128 5.41441C16.6547 5.41441 16.8814 4.9823 16.8814 3.51725C16.8814 2.04467 16.6547 1.62843 16.128 1.62843C15.5932 1.62842 15.3745 2.08449 15.3745 3.51725ZM21.8821 1.42485C21.8803 1.61798 21.8396 1.80882 21.7625 1.98629C21.6854 2.16376 21.5733 2.3243 21.4327 2.45859C21.2922 2.59287 21.126 2.69822 20.9439 2.76849C20.7618 2.83877 20.5673 2.87258 20.3719 2.86795C20.1791 2.87543 19.9867 2.84441 19.8063 2.77675C19.626 2.70909 19.4612 2.60617 19.3221 2.47417C19.1829 2.34216 19.0721 2.18378 18.9963 2.0085C18.9206 1.83321 18.8814 1.64463 18.8811 1.45404C18.8808 1.26068 18.9196 1.06921 18.9953 0.890871C19.0709 0.712536 19.1819 0.550938 19.3217 0.415573C19.4615 0.280208 19.6273 0.173807 19.8093 0.102623C19.9913 0.0314397 20.1859 -0.00309082 20.3816 0.00106039C20.5757 -0.00633372 20.7693 0.0250013 20.9508 0.0931932C21.1323 0.161385 21.2981 0.265034 21.4382 0.397943C21.5783 0.530852 21.6898 0.690293 21.766 0.866735C21.8423 1.04318 21.8818 1.233 21.8821 1.42485ZM19.77 1.44285C19.765 1.52496 19.7772 1.6072 19.8057 1.68449C19.8342 1.76178 19.8785 1.83246 19.9358 1.89215C19.9931 1.95185 20.0622 1.99928 20.1388 2.0315C20.2154 2.06373 20.2979 2.08007 20.3812 2.07951C20.4645 2.07894 20.5467 2.06149 20.6229 2.02823C20.6991 1.99497 20.7675 1.94661 20.824 1.88615C20.8804 1.82569 20.9237 1.75441 20.9511 1.67675C20.9786 1.59908 20.9896 1.51667 20.9834 1.43464C20.9892 1.35263 20.978 1.27031 20.9505 1.19273C20.9229 1.11516 20.8796 1.04397 20.8232 0.983529C20.7667 0.923091 20.6984 0.874682 20.6224 0.841275C20.5463 0.807867 20.4641 0.790166 20.3809 0.789258C20.2969 0.791082 20.2141 0.809612 20.1375 0.843741C20.0608 0.877871 19.992 0.9269 19.935 0.987903C19.8779 1.0489 19.834 1.12063 19.8056 1.19879C19.7773 1.27696 19.7652 1.35996 19.77 1.44285Z" fill="currentColor"></path>
      <path fill-rule="evenodd" clip-rule="evenodd" d="M0 7.41155C0 6.27366 1.01961 5.23252 2.70791 4.43069C3.09678 4.246 3.52943 4.54235 3.52943 4.97285C3.52943 5.21731 3.38337 5.43665 3.16332 5.54313C2.52852 5.85027 2.0478 6.17506 1.7188 6.49106C1.29687 6.89632 1.2 7.20732 1.2 7.41155C1.2 7.61578 1.29687 7.92678 1.7188 8.33204C2.14398 8.74041 2.82256 9.16348 3.75962 9.54416C5.62761 10.303 8.29087 10.7998 11.2941 10.7998C14.2973 10.7998 16.9606 10.303 18.8286 9.54416C18.8382 9.54027 18.8477 9.53637 18.8572 9.53247C19.128 9.4216 19.4432 9.50283 19.6133 9.74092C19.8305 10.045 19.7239 10.4717 19.3789 10.6153C17.3278 11.4695 14.4634 11.9998 11.2941 11.9998C5.05654 11.9998 0 9.94556 0 7.41155ZM21.2429 8.73004C21.4642 9.00664 21.881 9.04054 22.0943 8.75776C22.4154 8.33205 22.5882 7.88 22.5882 7.41155C22.5882 6.45234 21.8637 5.56189 20.6248 4.82557C20.2351 4.59397 19.7647 4.89361 19.7647 5.34691C19.7647 5.57497 19.891 5.78255 20.0855 5.90164C20.4051 6.09732 20.6662 6.29586 20.8694 6.49106C21.2913 6.89632 21.3882 7.20732 21.3882 7.41155C21.3882 7.53083 21.3552 7.68653 21.2436 7.87615C21.0856 8.14475 21.0482 8.4867 21.2429 8.73004Z" fill="currentColor"></path>
      <path d="M19.7428 11.3285L18.5318 9.10598C18.4554 8.96572 18.5661 8.79687 18.7252 8.81108L20.9976 9.01408C21.1398 9.02678 21.2232 9.18001 21.1568 9.30634L20.0955 11.3258C20.0212 11.4672 19.8192 11.4687 19.7428 11.3285Z" fill="currentColor"></path>
      </svg>