<?xml version="1.0" encoding="UTF-8" standalone="no"?>
<!DOCTYPE svg PUBLIC "-//W3C//DTD SVG 1.1//EN" "http://www.w3.org/Graphics/SVG/1.1/DTD/svg11.dtd">
<svg width="100%" height="100%" viewBox="0 0 1888 1888" version="1.1" xmlns="http://www.w3.org/2000/svg" xmlns:xlink="http://www.w3.org/1999/xlink" xml:space="preserve" xmlns:serif="http://www.serif.com/" style="fill-rule:evenodd;clip-rule:evenodd;stroke-linejoin:round;stroke-miterlimit:2;">
    <g transform="matrix(4.16667,0,0,4.16667,0,0)">
        <path d="M254.725,434.922C272.834,424.996 289.279,405.517 302.584,377.708C310.502,361.156 316.962,342.391 321.835,322.094C342.131,317.222 360.896,310.762 377.447,302.843C405.256,289.539 424.736,273.095 434.661,254.986C422.064,348.39 348.129,422.325 254.725,434.922ZM18.078,254.987C28.003,273.096 47.482,289.54 75.291,302.843C91.843,310.762 110.608,317.222 130.904,322.094C135.777,342.391 142.237,361.156 150.155,377.708C163.46,405.517 179.904,424.996 198.013,434.922C104.61,422.325 30.675,348.39 18.078,254.987ZM198.012,18.34C179.904,28.265 163.46,47.744 150.155,75.553C142.237,92.105 135.777,110.869 130.904,131.166C110.608,136.038 91.843,142.498 75.291,150.417C47.482,163.721 28.004,180.164 18.078,198.272C30.676,104.87 104.61,30.937 198.012,18.34ZM324.557,143.498C342.006,148.002 358.171,153.741 372.563,160.626C410.19,178.628 430.913,202.068 430.913,226.63C430.913,251.192 410.19,274.633 372.563,292.634C358.171,299.52 342.006,305.258 324.557,309.762C329.823,283.78 332.592,255.638 332.592,226.63C332.592,197.622 329.824,169.48 324.557,143.498ZM292.375,80.438C299.26,94.83 304.998,110.994 309.502,128.443C283.52,123.177 255.378,120.408 226.369,120.408C197.361,120.408 169.219,123.177 143.237,128.443C147.741,110.994 153.48,94.83 160.365,80.438C178.367,42.81 201.807,22.088 226.369,22.088C250.932,22.088 274.372,42.81 292.375,80.438ZM128.182,309.762C110.733,305.258 94.567,299.52 80.176,292.634C42.548,274.633 21.825,251.192 21.825,226.63C21.825,202.068 42.548,178.628 80.176,160.626C94.567,153.741 110.733,148.002 128.182,143.498C122.916,169.48 120.147,197.622 120.147,226.63C120.147,255.638 122.916,283.781 128.182,309.762ZM226.369,321.534C196.159,321.534 166.97,318.467 140.346,312.653C134.532,286.029 131.465,256.841 131.465,226.63C131.465,196.421 134.532,167.231 140.346,140.607C166.97,134.794 196.159,131.726 226.369,131.726C256.579,131.726 285.769,134.793 312.393,140.607C318.207,167.231 321.275,196.421 321.275,226.63C321.275,256.841 318.207,286.029 312.393,312.653C285.769,318.467 256.579,321.534 226.369,321.534ZM226.369,431.174C201.807,431.174 178.367,410.451 160.365,372.823C153.48,358.431 147.741,342.266 143.237,324.817C169.219,330.083 197.361,332.852 226.369,332.852C255.378,332.852 283.52,330.083 309.502,324.817C304.998,342.266 299.26,358.431 292.375,372.823C274.372,410.451 250.932,431.174 226.369,431.174ZM434.661,198.274C424.735,180.166 405.256,163.721 377.447,150.417C360.896,142.498 342.131,136.038 321.835,131.166C316.962,110.869 310.502,92.105 302.584,75.553C289.279,47.744 272.835,28.265 254.727,18.34C348.13,30.937 422.064,104.871 434.661,198.274ZM386.437,66.564C343.681,23.808 286.835,0.261 226.37,0.261C165.904,0.261 109.058,23.808 66.302,66.564C23.546,109.319 0,166.165 0,226.631C0,287.096 23.546,343.942 66.302,386.698C109.058,429.453 165.904,453 226.37,453C286.835,453 343.681,429.453 386.437,386.698C429.192,343.942 452.739,287.096 452.739,226.631C452.739,166.165 429.192,109.319 386.437,66.564Z" style="fill:rgb(3,4,4);fill-rule:nonzero;"/>
        <path d="M184.81,227.575C183.319,225.954 181.486,224.513 179.311,223.252C181.569,221.211 183.304,219.117 184.518,216.97C185.73,214.824 186.337,212.25 186.337,209.247C186.337,206.966 185.918,204.834 185.082,202.853C184.245,200.871 183.005,199.131 181.36,197.629C179.715,196.128 177.777,194.98 175.547,194.184C173.316,193.389 170.849,192.99 168.145,192.99C165.05,192.99 162.248,193.463 159.739,194.409C157.23,195.355 155.131,196.609 153.445,198.17C151.758,199.731 150.475,201.374 149.597,203.1C148.719,204.827 148.28,206.471 148.28,208.032C148.28,209.652 148.746,210.952 149.681,211.927C150.615,212.902 151.639,213.39 152.755,213.39C153.702,213.39 154.539,213.21 155.264,212.85C155.988,212.489 156.491,211.994 156.769,211.364C157.243,210.193 157.766,208.947 158.338,207.626C158.909,206.305 159.515,205.224 160.157,204.384C160.798,203.544 161.669,202.868 162.771,202.357C163.872,201.847 165.273,201.592 166.974,201.592C169.483,201.592 171.476,202.425 172.954,204.091C174.432,205.757 175.171,207.746 175.171,210.058C175.171,213.09 174.243,215.416 172.39,217.038C170.535,218.659 168.326,219.469 165.761,219.469L164.046,219.469C162.066,219.469 160.575,219.913 159.572,220.798C158.568,221.684 158.066,222.847 158.066,224.288C158.066,225.759 158.484,226.908 159.321,227.733C160.157,228.559 161.342,228.971 162.875,228.971C163.21,228.971 163.963,228.911 165.133,228.792C166.305,228.672 167.168,228.611 167.727,228.611C170.905,228.611 173.386,229.609 175.171,231.606C176.955,233.603 177.847,236.357 177.847,239.87C177.847,242.241 177.325,244.327 176.279,246.129C175.233,247.93 173.909,249.289 172.306,250.204C170.703,251.121 169.037,251.577 167.308,251.577C164.297,251.577 161.962,250.564 160.303,248.538C158.644,246.511 157.09,243.412 155.641,239.24C155.417,238.549 154.943,237.956 154.219,237.46C153.493,236.965 152.74,236.717 151.96,236.717C150.398,236.717 149.095,237.251 148.05,238.315C147.004,239.382 146.481,240.785 146.481,242.526C146.481,243.877 146.921,245.588 147.799,247.66C148.677,249.732 149.974,251.735 151.688,253.671C153.403,255.609 155.584,257.222 158.233,258.512C160.881,259.803 163.879,260.45 167.225,260.45C170.514,260.45 173.519,259.886 176.237,258.76C178.956,257.635 181.304,256.074 183.284,254.077C185.263,252.081 186.761,249.807 187.78,247.255C188.797,244.703 189.306,242.062 189.306,239.329C189.306,237.048 188.93,234.924 188.177,232.957C187.424,230.991 186.302,229.196 184.81,227.575Z" style="fill:rgb(3,4,4);fill-rule:nonzero;"/>
        <path d="M226.986,247.863C225.146,250.339 222.818,251.577 220.002,251.577C217.047,251.577 214.593,250.227 212.642,247.525C210.69,244.823 209.715,241.445 209.715,237.392C209.715,234.871 210.195,232.672 211.157,230.796C212.119,228.919 213.387,227.485 214.963,226.494C216.537,225.504 218.19,225.008 219.919,225.008C221.73,225.008 223.39,225.526 224.896,226.562C226.401,227.598 227.586,229.099 228.45,231.065C229.315,233.032 229.747,235.382 229.747,238.113C229.747,242.137 228.827,245.386 226.986,247.863ZM235.623,222.599C233.936,220.633 231.97,219.117 229.726,218.051C227.481,216.986 225.035,216.452 222.387,216.452C219.626,216.452 217.13,217.038 214.9,218.209C212.669,219.38 210.606,221.18 208.71,223.612C209.073,215.447 210.272,209.773 212.307,206.59C213.311,205.03 214.544,203.791 216.008,202.875C217.472,201.96 218.942,201.502 220.421,201.502C222.26,201.502 223.878,202.05 225.272,203.145C226.666,204.242 227.683,205.69 228.325,207.491C228.799,208.902 229.538,210.006 230.541,210.801C231.545,211.597 232.632,211.994 233.803,211.994C235.142,211.994 236.243,211.492 237.108,210.486C237.971,209.48 238.404,208.362 238.404,207.131C238.404,205.09 237.714,202.958 236.334,200.736C234.953,198.515 232.905,196.654 230.186,195.152C227.468,193.651 224.324,192.901 220.755,192.901C217.047,192.901 213.743,193.651 210.844,195.152C207.944,196.654 205.476,198.875 203.441,201.817C201.406,204.759 199.845,208.467 198.757,212.94C197.67,217.414 197.126,222.487 197.126,228.161C197.126,235.127 198.026,241.018 199.824,245.836C201.622,250.654 204.222,254.295 207.623,256.757C211.025,259.219 215.067,260.45 219.751,260.45C223.822,260.45 227.468,259.481 230.688,257.545C233.908,255.609 236.417,252.914 238.215,249.461C240.014,246.009 240.913,242.166 240.913,237.933C240.913,235.021 240.453,232.23 239.533,229.557C238.613,226.885 237.31,224.566 235.623,222.599Z" style="fill:rgb(3,4,4);fill-rule:nonzero;"/>
        <path d="M278.594,240.095C278.008,243.667 276.99,246.415 275.541,248.336C274.09,250.257 272.083,251.218 269.519,251.218C267.037,251.218 265.071,250.295 263.621,248.448C262.172,246.602 261.14,243.877 260.527,240.274C259.913,236.673 259.607,232.049 259.607,226.404C259.607,218.089 260.324,211.934 261.76,207.941C263.196,203.949 265.755,201.952 269.435,201.952C271.999,201.952 274.007,202.846 275.457,204.631C276.906,206.418 277.938,209.06 278.552,212.557C279.164,216.055 279.471,220.55 279.471,226.044C279.471,231.839 279.178,236.523 278.594,240.095ZM283.256,198.732C281.485,196.796 279.43,195.325 277.088,194.319C274.746,193.314 272.138,192.81 269.267,192.81C264.918,192.81 261.174,193.944 258.038,196.211C254.902,198.478 252.512,201.772 250.866,206.095C249.918,208.707 249.221,211.829 248.775,215.462C248.329,219.094 248.107,223.178 248.107,227.71C248.107,231.223 248.308,234.489 248.712,237.505C249.116,240.522 249.751,243.277 250.616,245.769C252.316,250.333 254.846,253.905 258.206,256.486C261.565,259.07 265.364,260.359 269.602,260.359C273.282,260.359 276.628,259.398 279.639,257.477C282.65,255.556 285.103,252.824 286.999,249.281C288.505,246.399 289.536,243.187 290.094,239.644C290.652,236.102 290.93,231.87 290.93,226.944C290.93,217.879 289.87,210.868 287.752,205.915C286.525,203.063 285.026,200.669 283.256,198.732Z" style="fill:rgb(3,4,4);fill-rule:nonzero;"/>
        <path d="M298.124,191.21C295.102,191.21 292.642,188.751 292.642,185.729C292.642,182.707 295.102,180.248 298.124,180.248C301.146,180.248 303.605,182.707 303.605,185.729C303.605,188.751 301.146,191.21 298.124,191.21ZM298.124,174.943C292.176,174.943 287.338,179.781 287.338,185.729C287.338,191.676 292.176,196.514 298.124,196.514C304.071,196.514 308.91,191.676 308.91,185.729C308.91,179.781 304.071,174.943 298.124,174.943Z" style="fill:rgb(3,4,4);fill-rule:nonzero;"/>
    </g>
</svg>
