<?xml version="1.0" encoding="UTF-8" standalone="no"?>
<!DOCTYPE svg PUBLIC "-//W3C//DTD SVG 1.1//EN" "http://www.w3.org/Graphics/SVG/1.1/DTD/svg11.dtd">
<svg width="100%" height="100%" viewBox="0 0 294 250" version="1.1" xmlns="http://www.w3.org/2000/svg" xmlns:xlink="http://www.w3.org/1999/xlink" xml:space="preserve" xmlns:serif="http://www.serif.com/" style="fill-rule:evenodd;clip-rule:evenodd;stroke-linejoin:round;stroke-miterlimit:2;">
    <g transform="matrix(0.587787,0,0,-0.586631,0,248.79)">
        <path d="M496.4,293.7L250,2.8L3.6,293.7L113.5,421.3L386.5,421.3L496.4,293.7Z" style="fill:white;fill-rule:nonzero;"/>
    </g>
    <g transform="matrix(0.587787,0,0,-0.586631,0,249.67)">
        <path d="M387.7,425.6L112.3,425.6L0,295.2L250,0L498.5,293.4L500,295.2L387.7,425.6ZM389.2,415.4L490.3,298L389.2,298L389.2,415.4ZM383.7,420.1L383.7,301.5L255.4,420.1L383.7,420.1ZM379.4,297.9L120.6,297.9L250,417.5L379.4,297.9ZM116.3,420.1L244.6,420.1L116.3,301.5L116.3,420.1ZM110.8,415.4L110.8,298L9.7,298L110.8,415.4ZM9.6,292.4L111.8,292.4L238.7,22L9.6,292.4ZM117.9,292.4L382.1,292.4L250,10.8L117.9,292.4ZM261.4,22L388.3,292.4L490.5,292.4L261.4,22Z" style="fill-rule:nonzero;"/>
    </g>
    <g transform="matrix(0.109788,0,0,-0.1092,53.4433,126.156)">
        <path d="M1307.98,381.484C1308,381.504 1308.03,381.523 1308.06,381.539C1311.62,387.879 1316.85,392.492 1323.1,397.309C1312.8,389.371 1321.92,396.781 1324.34,399.25C1325.54,400.473 1326.7,401.73 1327.83,403.016C1329.21,404.59 1329.68,405.043 1329.63,404.891C1332.2,408.668 1334.34,413.035 1336.29,416.777C1336.95,418.059 1337.59,419.348 1338.21,420.648C1315.75,431.145 1315.05,451.656 1336.22,476.531C1343.77,485.406 1347.18,496.051 1330.6,509.344C1306.45,510.992 1281.62,497.918 1257.44,485.391C1226.25,469.238 1214.43,439.742 1221.45,407.73C1228.53,375.473 1257.9,380.5 1283.39,380.965C1291.48,381.113 1299.81,381.691 1307.98,381.484" style="fill:rgb(53,55,54);fill-rule:nonzero;"/>
    </g>
    <g transform="matrix(0.109788,0,0,-0.1092,53.4433,162.565)">
        <path d="M1336.33,640.133C1325.13,638.379 1315.64,638.828 1305.55,644.16C1305.24,644.324 1304.94,644.5 1304.64,644.672C1285.56,619.191 1292.71,607.676 1314.83,572.098C1324.81,586.461 1333.64,599.859 1343.17,612.738C1349.52,621.316 1355.15,628.184 1360.5,633.461C1360.66,638.234 1360.96,643.012 1361.35,647.777C1353.44,644.137 1345.07,641.504 1336.33,640.133" style="fill:rgb(53,55,54);fill-rule:nonzero;"/>
    </g>
    <g transform="matrix(0.109788,0,0,-0.1092,53.4433,136.805)">
        <path d="M1483.54,491.043C1483.26,490.797 1482.99,490.539 1482.71,490.289C1484.13,491.223 1485.53,492.187 1486.96,493.113C1487.55,493.695 1485.13,492.434 1483.54,491.043" style="fill:rgb(53,55,54);fill-rule:nonzero;"/>
    </g>
    <g transform="matrix(0.109788,0,0,-0.1092,53.4433,150.509)">
        <path d="M1548.15,591.172C1548.77,608.645 1541.05,620.734 1529.44,629.473C1525.29,629.328 1521.14,629.059 1516.99,628.641C1511.45,627.691 1505.96,626.457 1500.57,624.816C1497.23,623.797 1494.02,622.48 1490.73,621.32C1504.14,626.051 1493.06,622.164 1489.43,620.117C1488.59,619.641 1487.77,619.129 1486.96,618.609C1486.63,618.285 1485.38,617.391 1482.55,615.637C1481.39,614.586 1480.25,613.508 1479.15,612.391C1478.35,611.578 1477.6,610.734 1476.84,609.887C1475.03,606.84 1473.02,603.945 1471.39,600.766C1466.97,592.168 1459.55,586.52 1451.07,583.66C1447.15,570.012 1443.96,556.18 1441.75,542.152C1440.63,532.207 1440.06,522.227 1440.15,512.254C1444.16,509.164 1448.03,505.852 1451.91,502.613C1478.96,480.008 1507.73,493.281 1529.93,506.391C1561.89,525.266 1547.13,562.031 1548.15,591.172" style="fill:rgb(53,55,54);fill-rule:nonzero;"/>
    </g>
    <g transform="matrix(0.084136,0.0701524,-0.0705303,0.0836852,144.766,-12.2288)">
        <path d="M943.575,883.512C963.054,907.405 968.123,934.29 972.169,961.104C975.514,983.251 965.627,1000.01 943.575,1005.06C924.143,1009.5 913.021,995.349 904.982,980.068C880.55,933.624 910.82,909.324 943.575,883.512" style="fill:rgb(53,55,54);fill-rule:nonzero;"/>
    </g>
    <g transform="matrix(-0.0927388,-0.0584466,0.0587614,-0.092242,262.54,222.595)">
        <path d="M1206.94,533.571C1243.8,558.842 1236.08,592.536 1241.24,620.663C1245.49,643.803 1235.97,667.659 1206.94,663.16C1180.2,659.013 1161.35,637.915 1169.15,609.761C1176.18,584.393 1192.57,561.613 1206.94,533.571" style="fill:rgb(53,55,54);fill-rule:nonzero;"/>
    </g>
    <g transform="matrix(0.109788,0,0,-0.1092,53.4433,38.1408)">
        <path d="M1656.28,9.973C1648.81,37.672 1663.94,57.43 1683.59,72.609C1700.61,85.77 1720,80.922 1737.26,68.852C1750.53,59.57 1753.34,46.449 1748.29,32.621C1742.46,16.641 1732.9,1.781 1712.66,5.031C1694.25,8 1674.64,-5.309 1656.28,9.973" style="fill:rgb(53,55,54);fill-rule:nonzero;"/>
    </g>
    <g transform="matrix(0.0175333,0.107798,-0.108379,0.0174393,209.829,43.8749)">
        <path d="M641.524,857.854C667.458,871.843 665.271,902.267 669.829,927.657C672.987,945.219 656.408,948.662 641.524,947.695C608.301,945.537 586.137,923.139 589.969,895.906C592.38,878.802 621.558,855.178 641.524,857.854" style="fill:rgb(53,55,54);fill-rule:nonzero;"/>
    </g>
    <g transform="matrix(0.0127054,0.108466,-0.10905,0.0126374,203.45,-64.2599)">
        <path d="M1144.68,283.308C1183.64,303.227 1208.61,324.148 1185.54,367.732C1177.04,383.786 1162.61,391.618 1144.68,386.662C1128.84,382.276 1125.72,368.152 1127.29,353.906C1129.65,332.578 1125.74,309.865 1144.68,283.308" style="fill:rgb(53,55,54);fill-rule:nonzero;"/>
    </g>
    <g transform="matrix(0.0887348,0.0643029,-0.0646492,0.0882594,126.622,-21.1202)">
        <path d="M1039.08,722.284C1069.41,757.934 1069.45,797.442 1062.46,837.518C1060.54,848.538 1051.93,858.607 1039.08,852.622C1033.58,850.066 1026.91,836.817 1029.01,833.16C1049.53,797.49 1024.63,759.036 1039.08,722.284" style="fill:rgb(53,55,54);fill-rule:nonzero;"/>
    </g>
    <g transform="matrix(0.109788,0,0,-0.1092,53.4433,123.171)">
        <path d="M1097.15,390.676C1086.23,391.094 1078.19,394.324 1076.47,402.766C1071.73,426.086 1094.05,433.969 1104.69,448.402C1112.9,459.551 1123.82,468.453 1138.78,459.617C1146.18,455.242 1150.42,446.043 1145.98,438.91C1133.31,418.543 1117.11,401.156 1097.15,390.676" style="fill:rgb(53,55,54);fill-rule:nonzero;"/>
    </g>
    <g transform="matrix(0.0442015,-0.0999584,0.100497,0.0439647,148.534,204.179)">
        <path d="M1661.62,85.511C1685.42,105.834 1685.78,125.866 1688.33,143.767C1690.85,161.557 1682.39,177.404 1661.62,176.043C1636.67,174.407 1629.69,157.814 1637.78,135.715C1643.3,120.69 1651.45,106.629 1661.62,85.511" style="fill:rgb(53,55,54);fill-rule:nonzero;"/>
    </g>
    <g transform="matrix(-0.0269525,0.105858,-0.106428,-0.0268081,247.247,46.9753)">
        <path d="M814.776,734.297C830.627,730.935 845.424,735.134 849.574,748.864C858.108,777.106 828.64,782.691 814.776,796.67C805.644,805.878 793.169,798.846 789.765,787.092C782.656,762.538 794.51,745.699 814.776,734.297" style="fill:rgb(53,55,54);fill-rule:nonzero;"/>
    </g>
    <g transform="matrix(0.0363655,0.103035,-0.10359,0.0361707,120.156,71.3977)">
        <path d="M36.752,586.132C57.849,600.27 59.469,621.861 55.123,644.678C53.469,653.338 45.993,658.786 36.752,656.772C17.079,652.478 2.733,612.48 14.259,593.607C18.791,586.182 26.697,583.107 36.752,586.132" style="fill:rgb(53,55,54);fill-rule:nonzero;"/>
    </g>
    <g transform="matrix(0.106493,0.0265539,-0.0266969,0.105922,81.7189,10.9702)">
        <path d="M809.112,924.624C824.496,925.878 836.488,932.074 837.809,948.169C839.573,969.634 828.456,985.497 809.112,992.944C798.939,996.86 786.799,993.383 784.784,979.125C781.518,955.994 785.22,935.502 809.112,924.624" style="fill:rgb(53,55,54);fill-rule:nonzero;"/>
    </g>
    <g transform="matrix(-0.0874373,-0.0660379,0.0663936,-0.0869688,34.6624,285.509)">
        <path d="M310.652,1152.88C324.839,1176.65 328.917,1195.36 328.579,1214.83C328.385,1226.19 324.291,1238.04 310.652,1237.27C297.378,1236.53 294.177,1224.4 293.929,1213.08C293.508,1193.93 291.981,1174.29 310.652,1152.88" style="fill:rgb(53,55,54);fill-rule:nonzero;"/>
    </g>
    <g transform="matrix(0.109788,0,0,-0.1092,53.4433,235.499)">
        <path d="M1085.04,903.344C1064.54,932.883 1065.08,955.793 1070.81,984.43C1113.37,966.09 1113.15,942.145 1085.04,903.344" style="fill:rgb(53,55,54);fill-rule:nonzero;"/>
    </g>
    <g transform="matrix(0.0234578,0.106678,-0.107253,0.0233322,152.084,26.0308)">
        <path d="M467.724,518.439C483.871,524.449 496.231,533.59 491.813,553.313C488.98,565.973 479.105,569.643 467.724,565.954C453.345,561.29 447.458,548.702 446.971,535.076C446.523,522.571 455.077,516.936 467.724,518.439" style="fill:rgb(53,55,54);fill-rule:nonzero;"/>
    </g>
    <g transform="matrix(0.0299892,0.105047,-0.105613,0.0298286,263.839,42.9012)">
        <path d="M873.221,1310.73C889.228,1317.91 903.783,1325.52 900.009,1341.15C896.748,1354.68 882.626,1349.8 873.221,1345.36C860.674,1339.43 848.255,1331.03 853.99,1314.8C855.275,1311.14 868.314,1311.64 873.221,1310.73" style="fill:rgb(53,55,54);fill-rule:nonzero;"/>
    </g>
    <g transform="matrix(0.0200323,0.107367,-0.107945,0.019925,224.564,-93.2278)">
        <path d="M1454.96,354.152C1469.38,362.576 1473.93,374.831 1472.87,388.194C1472.11,397.846 1462.57,399.454 1454.96,397.075C1440.72,392.621 1431.23,382.978 1437.79,367.354C1440.27,361.426 1449.32,358.262 1454.96,354.152" style="fill:rgb(53,55,54);fill-rule:nonzero;"/>
    </g>
    <g transform="matrix(0.0384415,0.102287,-0.102838,0.0382356,144.79,55.8292)">
        <path d="M244.068,693.715C261.465,697.379 264.763,710.288 263.169,724.759C261.925,736.075 254.651,749.132 244.068,747.912C224.655,745.672 218.362,729.529 221.229,711.217C223.137,699.007 231.181,692.447 244.068,693.715" style="fill:rgb(53,55,54);fill-rule:nonzero;"/>
    </g>
    <g transform="matrix(0.108141,0.0188447,-0.0189462,0.107561,70.9982,20.5289)">
        <path d="M542.74,858.702C551.136,857.37 559.932,859.244 561.847,868.366C565.08,883.766 558.651,896.099 542.74,899.831C532.901,902.138 527.887,894.252 527.159,885.234C526.199,873.303 530.213,863.502 542.74,858.702" style="fill:rgb(53,55,54);fill-rule:nonzero;"/>
    </g>
    <g transform="matrix(0.106765,-0.0254499,0.025587,0.106193,50.7523,62.7627)">
        <path d="M1283.41,241.205C1292.46,241.193 1295.88,244.544 1295.59,251.189C1295.2,259.814 1292.15,268.298 1283.41,270.335C1273.81,272.549 1266.59,265.914 1269.31,256.717C1271.25,250.116 1279.4,245.354 1283.41,241.205" style="fill:rgb(53,55,54);fill-rule:nonzero;"/>
    </g>
    <g transform="matrix(-0.108493,-0.0167218,0.0168119,-0.107912,63.8818,277.765)">
        <path d="M135.591,1112.09C146.232,1109.9 151.479,1115.65 152.63,1124.1C154.532,1138.03 151.508,1150.53 135.591,1154.75C125.725,1157.35 120.659,1150.57 118.717,1142.61C115.017,1127.4 123.041,1117.94 135.591,1112.09" style="fill:rgb(53,55,54);fill-rule:nonzero;"/>
    </g>
    <g transform="matrix(0.105391,0.030595,-0.0307598,0.104826,69.045,-14.7369)">
        <path d="M1481.26,276.051C1490.39,275.075 1500.11,279.83 1498.54,287.415C1496.63,296.612 1489.19,306.597 1481.26,312.064C1472.65,318.007 1466.4,310.037 1465.99,301.073C1465.49,289.896 1469.45,280.26 1481.26,276.051" style="fill:rgb(53,55,54);fill-rule:nonzero;"/>
    </g>
    <g transform="matrix(-0.109712,0.00405441,-0.00407624,-0.109124,351.988,92.3258)">
        <path d="M1355.7,299.011C1359.56,301.566 1366.99,305.454 1366.62,306.472C1364.03,313.522 1360.57,320.629 1355.7,326.26C1354.02,328.192 1343.94,326.554 1343.77,325.508C1341.86,314.371 1346.13,305.34 1355.7,299.011" style="fill:rgb(53,55,54);fill-rule:nonzero;"/>
    </g>
    <g transform="matrix(-0.107231,0.0234302,-0.0235564,-0.106656,295.229,141.55)">
        <path d="M1047.2,615.456C1057.25,616.055 1061.13,622.6 1060.77,631.411C1060.42,639.941 1055.97,647.81 1047.2,648.827C1033.5,650.42 1028.16,641.304 1030.19,629.18C1031.57,620.973 1038.38,616.13 1047.2,615.456" style="fill:rgb(53,55,54);fill-rule:nonzero;"/>
    </g>
    <g transform="matrix(-0.104209,-0.0343684,0.0345535,-0.10365,221.061,230.324)">
        <path d="M911.739,782.856C915.936,786.008 922.677,788.452 923.865,792.519C926.577,801.814 921.401,809.514 911.739,810.236C907.855,810.524 901.082,804.967 899.814,800.794C897.014,791.582 901.463,784.695 911.739,782.856" style="fill:rgb(53,55,54);fill-rule:nonzero;"/>
    </g>
    <g transform="matrix(-0.10634,0.0271525,-0.0272988,-0.10577,224.167,241.068)">
        <path d="M658.439,1058.48C665.511,1057.12 669.593,1060.29 667.565,1067.09C666.154,1071.82 662.583,1077.38 658.439,1079.36C655.341,1080.82 646.647,1078.1 645.893,1075.6C642.919,1065.71 651.148,1062.03 658.439,1058.48" style="fill:rgb(53,55,54);fill-rule:nonzero;"/>
    </g>
    <g transform="matrix(0.109788,0,0,-0.1092,53.4433,294.742)">
        <path d="M805.199,1195.42C795.965,1208.98 804.598,1219.58 811.379,1229.62C814.93,1234.87 821.625,1233.11 822.387,1226.74C824.039,1212.94 817.52,1202.56 805.199,1195.42" style="fill:rgb(53,55,54);fill-rule:nonzero;"/>
    </g>
    <g transform="matrix(0.0137867,0.108335,-0.108919,0.0137129,138.846,-33.8741)">
        <path d="M720.695,138.962C723.706,142.489 729.304,146.253 729.017,149.489C728.612,153.961 724.422,160.873 720.695,161.732C710.393,164.105 705.202,157.491 708.247,147.871C709.476,143.983 716.36,141.882 720.695,138.962" style="fill:rgb(53,55,54);fill-rule:nonzero;"/>
    </g>
    <g transform="matrix(-0.035326,0.103392,-0.103949,-0.0351367,335.758,-111.698)">
        <path d="M1750.3,260.589C1755.86,260.937 1762.44,265.683 1763.46,274.167C1764.46,282.56 1758.87,288.875 1750.3,289.337C1741.77,289.807 1734.56,285.444 1734.06,276.047C1733.62,267.767 1737.72,261.493 1750.3,260.589" style="fill:rgb(53,55,54);fill-rule:nonzero;"/>
    </g>
    <g transform="matrix(0.0128635,-0.108448,0.109032,0.0127946,157.351,252.572)">
        <path d="M1623.24,478.768C1627.47,481.408 1637.64,484.346 1638.53,489.054C1640.25,498.037 1630.43,499.769 1623.24,499.638C1618.55,499.558 1611.09,497.721 1609.81,494.631C1606.18,485.862 1611.77,480.852 1623.24,478.768" style="fill:rgb(53,55,54);fill-rule:nonzero;"/>
    </g>
    <g transform="matrix(-0.0373496,0.102686,-0.103239,-0.0371495,279.001,-2.30625)">
        <path d="M1126.98,564.395C1131.28,566.594 1138.3,567.913 1139.33,571.145C1142.45,580.885 1135.48,585.567 1126.98,584.695C1123.16,584.297 1119.93,578.333 1116.44,574.887C1119.94,571.392 1123.45,567.899 1126.98,564.395" style="fill:rgb(53,55,54);fill-rule:nonzero;"/>
    </g>
    <g transform="matrix(-0.0394081,0.101922,-0.102471,-0.039197,189.863,112.631)">
        <path d="M359.42,798.307C364.13,800.325 371.499,801.325 372.342,804.223C375.497,815.038 366.826,815.933 359.42,815.404C354.709,815.072 346.667,813.084 346.168,810.611C344.146,800.674 353.18,800.201 359.42,798.307" style="fill:rgb(53,55,54);fill-rule:nonzero;"/>
    </g>
    <g transform="matrix(0.0052682,0.109074,-0.109661,0.00523998,239.297,113.148)">
        <path d="M443.786,1260.19C452.093,1262.8 457.886,1268.21 455.834,1276.99C455.164,1279.85 447.495,1283.45 443.786,1282.74C435.648,1281.19 429.895,1274.69 431.157,1266.16C431.538,1263.6 439.379,1262.13 443.786,1260.19" style="fill:rgb(53,55,54);fill-rule:nonzero;"/>
    </g>
    <g transform="matrix(0.00742472,0.10895,-0.109537,0.00738494,159.764,-18.9921)">
        <path d="M720.271,286.785C725.145,289.981 735.512,293.331 736.03,297.817C737.178,307.801 727.202,306.936 720.271,305.962C712.984,304.935 703.777,303.88 705.314,293.441C705.688,290.933 713.718,289.551 720.271,286.785" style="fill:rgb(53,55,54);fill-rule:nonzero;"/>
    </g>
</svg>
