<?xml version="1.0" encoding="UTF-8" standalone="no"?>
<!DOCTYPE svg PUBLIC "-//W3C//DTD SVG 1.1//EN" "http://www.w3.org/Graphics/SVG/1.1/DTD/svg11.dtd">
<svg width="100%" height="100%" viewBox="0 0 294 250" version="1.1" xmlns="http://www.w3.org/2000/svg" xmlns:xlink="http://www.w3.org/1999/xlink" xml:space="preserve" xmlns:serif="http://www.serif.com/" style="fill-rule:evenodd;clip-rule:evenodd;stroke-linejoin:round;stroke-miterlimit:2;">
    <g transform="matrix(0.587787,0,0,-0.586631,0,248.79)">
        <path d="M496.4,293.7L250,2.8L3.6,293.7L113.5,421.3L386.5,421.3L496.4,293.7Z" style="fill:white;fill-rule:nonzero;"/>
    </g>
    <g transform="matrix(0.587787,0,0,-0.586631,0,249.67)">
        <path d="M387.7,425.6L112.3,425.6L0,295.2L250,0L498.5,293.4L500,295.2L387.7,425.6ZM389.2,415.4L490.3,298L389.2,298L389.2,415.4ZM383.7,420.1L383.7,301.5L255.4,420.1L383.7,420.1ZM379.4,297.9L120.6,297.9L250,417.5L379.4,297.9ZM116.3,420.1L244.6,420.1L116.3,301.5L116.3,420.1ZM110.8,415.4L110.8,298L9.7,298L110.8,415.4ZM9.6,292.4L111.8,292.4L238.7,22L9.6,292.4ZM117.9,292.4L382.1,292.4L250,10.8L117.9,292.4ZM261.4,22L388.3,292.4L490.5,292.4L261.4,22Z" style="fill-rule:nonzero;"/>
    </g>
    <g transform="matrix(0.136909,0,0,-0.134605,106.932,107.703)">
        <path d="M639.125,258.699C614.828,234.898 587.586,239.961 560.426,243.391C550.543,244.641 545.805,253.23 549.801,258.07C558.781,268.961 570.41,278.289 582.457,285.879C598.383,295.922 610.875,289.48 617.547,272.879C621.625,262.73 635.555,272.551 639.125,258.699" style="fill-rule:nonzero;"/>
    </g>
    <g transform="matrix(0.136909,0,0,-0.134605,106.932,57.6877)">
        <path d="M649.352,107.301C666.379,105.68 675.656,91.82 690.188,89.371C698.723,87.93 704.973,79.012 702.816,68.762C701.047,60.371 693.91,57.34 685.984,57.441C676.215,57.559 660.051,51.949 659.293,64.441C658.418,78.84 646.441,90.34 649.352,107.301" style="fill-rule:nonzero;"/>
    </g>
    <g transform="matrix(-0.116002,0.0714919,-0.0727155,-0.11405,272.362,88.2128)">
        <path d="M548.565,346.686C558.667,347.163 564.868,353.296 565.453,363.182C566.121,374.523 561.67,384.411 548.565,384.739C536.697,385.036 535.244,375.564 535.018,366.165C534.788,356.574 536.213,348.159 548.565,346.686" style="fill-rule:nonzero;"/>
    </g>
    <g transform="matrix(0.101711,0.0901035,-0.0916456,0.0999991,151.005,9.64364)">
        <path d="M421.773,297.891C434.057,302.771 439.354,312.442 436.833,325.844C435.338,333.749 430.737,340.949 421.773,335.192C413.078,329.603 395.494,329.899 401.42,312.002C404.243,303.481 409.823,296.002 421.773,297.891" style="fill-rule:nonzero;"/>
    </g>
    <g transform="matrix(0.0983647,0.0936254,-0.0952279,0.0967095,144.462,49.0843)">
        <path d="M20.082,363.64C32.264,365.395 37.443,373.968 38.07,385.023C38.75,396.946 32.655,404.69 20.082,405.58C5.739,406.596 2.898,396.636 2.574,385.586C2.233,373.912 7.81,366.093 20.082,363.64" style="fill-rule:nonzero;"/>
    </g>
    <g transform="matrix(0.124019,0.057017,-0.0579928,0.121932,134.043,15.2837)">
        <path d="M449.31,349.744C460.44,354.483 460.673,364.693 460.42,374.721C460.248,381.425 455.793,386.053 449.31,383.828C438.137,379.992 435.324,370.342 437.097,359.59C438.092,353.575 442.098,349.602 449.31,349.744" style="fill-rule:nonzero;"/>
    </g>
    <g transform="matrix(-0.0914068,0.10021,-0.101925,-0.0898687,233.897,124.378)">
        <path d="M315.223,518.395C327.667,520.201 337.282,524.691 335.235,537.503C333.669,547.307 324.663,550.803 315.223,549.41C306.231,548.083 297.959,544.172 298.87,533.135C299.707,522.94 306.438,518.236 315.223,518.395" style="fill-rule:nonzero;"/>
    </g>
    <g transform="matrix(0.136909,0,0,-0.134605,106.932,196.64)">
        <path d="M458.551,572.445C454.883,594.523 448.281,608.973 465.547,617.824C468.047,619.105 475.195,616.777 476.387,614.293C484.352,597.703 472.762,588.609 458.551,572.445" style="fill-rule:nonzero;"/>
    </g>
    <g transform="matrix(0.119111,0.0663655,-0.0675014,0.117107,143.162,21.0914)">
        <path d="M342.863,430.778C357.728,436.268 352.869,447.207 352.046,456.451C351.526,462.323 346.809,462.921 342.863,459.99C334.5,453.782 328.855,445.572 333.012,434.834C333.983,432.326 340.128,431.816 342.863,430.778" style="fill-rule:nonzero;"/>
    </g>
    <g transform="matrix(0.0906662,0.100858,-0.102585,0.0891406,149.288,11.5993)">
        <path d="M358.286,239.622C365.984,240.65 370.504,245.369 370.049,253.871C369.665,261.071 364.736,263.492 358.286,263.045C349.586,262.436 345.543,257.001 345.916,248.787C346.236,241.854 350.855,238.988 358.286,239.622" style="fill-rule:nonzero;"/>
    </g>
    <g transform="matrix(0.113875,0.0747236,-0.0760025,0.111959,157.314,46.4152)">
        <path d="M59.491,635.043C64.674,635.914 66.433,639.45 65.985,644.183C65.581,648.482 64.35,653.497 59.491,653.782C54.324,654.083 52.8,649.47 53.126,644.837C53.428,640.503 54.396,636.368 59.491,635.043" style="fill-rule:nonzero;"/>
    </g>
    <g transform="matrix(0.0925661,0.0991762,-0.100874,0.0910084,131.468,1.2573)">
        <path d="M386.226,63.599C392.904,65.11 395.03,69.934 394.346,75.96C393.853,80.327 391.392,83.836 386.226,83.491C380.096,83.088 374.902,80.008 375.201,73.708C375.459,68.013 379.821,64.01 386.226,63.599" style="fill-rule:nonzero;"/>
    </g>
    <g transform="matrix(-0.120213,-0.0644163,0.0655188,-0.118191,264.746,404.248)">
        <path d="M924.106,1208.45C930.139,1212.57 934.627,1218.12 933.445,1225.57C932.643,1230.63 927.547,1230.81 924.106,1228.02C918.743,1223.66 912.881,1218.7 916.802,1210.6C917.537,1209.08 921.538,1209.14 924.106,1208.45" style="fill-rule:nonzero;"/>
    </g>
    <g transform="matrix(0.118922,-0.0666936,0.0678351,0.116921,58.4594,65.5517)">
        <path d="M233.333,768.461C238.059,768.8 241.373,771.127 241.111,776.041C240.876,780.467 237.767,783.591 233.333,783.724C228.94,783.858 225.011,781.954 225.663,776.475C226.177,772.136 228.818,769.249 233.333,768.461" style="fill-rule:nonzero;"/>
    </g>
    <g transform="matrix(-0.0695915,-0.115918,0.117902,-0.0684205,209.344,141.718)">
        <path d="M599.358,169.05C603.456,169.899 606.789,172.614 605.497,177.363C604.488,181.054 601.931,186.67 599.358,187.094C594.292,187.923 594.108,182.18 593.752,178.355C593.386,174.333 593.331,169.978 599.358,169.05" style="fill-rule:nonzero;"/>
    </g>
    <g transform="matrix(-0.0975789,-0.0944169,0.0960329,-0.095937,252.011,150.353)">
        <path d="M701.632,199.783C703.901,201.32 707.514,202.44 708.163,204.492C709.774,209.543 706.976,212.988 701.632,211.89C699.539,211.467 696.782,207.976 696.714,205.801C696.658,203.851 699.856,201.794 701.632,199.783" style="fill-rule:nonzero;"/>
    </g>
    <g transform="matrix(0.0420604,0.128095,-0.130288,0.0413526,253.865,134.335)">
        <path d="M36.255,1094.53C37.918,1096.18 42.115,1098.51 43.175,1101.84C44.705,1106.66 40.479,1109.8 36.255,1107.94C33.071,1106.54 30.363,1102.39 29.066,1098.87C27.817,1095.48 30.561,1093.55 36.255,1094.53" style="fill-rule:nonzero;"/>
    </g>
    <g transform="matrix(0.0903611,0.101123,-0.102853,0.0888406,216.513,52.7875)">
        <path d="M263.137,939.407C267.964,941.068 268.996,945.006 268.626,949.345C268.309,953.039 265.704,954.489 263.137,952.25C261.16,950.523 259.992,947.579 259.117,944.959C257.968,941.521 259.621,939.567 263.137,939.407" style="fill-rule:nonzero;"/>
    </g>
    <g transform="matrix(0.13687,0.00318689,-0.00324143,0.134567,111.273,35.9409)">
        <path d="M116.331,1326.3C113.626,1328.25 117.685,1329.52 119.886,1333.68C122.078,1337.83 119.948,1342.09 116.331,1344.61C112.841,1347.06 108.283,1349.3 106.172,1342.98C104.768,1338.78 105.625,1334.58 116.331,1326.3" style="fill-rule:nonzero;"/>
    </g>
    <g transform="matrix(-0.129031,0.0449993,-0.0457695,-0.12686,289.321,327.665)">
        <path d="M479.852,1190.13C481.704,1191.36 485.265,1192.45 485.75,1194.33C486.881,1198.7 484.619,1202.67 479.852,1203.19C477.824,1203.41 473.912,1201.15 473.617,1199.52C472.83,1195.22 475.042,1191.59 479.852,1190.13" style="fill-rule:nonzero;"/>
    </g>
    <g transform="matrix(0.0821215,0.107701,-0.109545,0.0807396,132.271,-12.0155)">
        <path d="M449.855,-2.26C454.121,-2.65 455.934,-1.051 455.841,2.408C455.731,6.754 454.399,10.818 449.855,12.23C446.71,13.207 444.06,11.005 444.88,7.808C445.847,4.07 448.319,0.719 449.855,-2.26" style="fill-rule:nonzero;"/>
    </g>
    <g transform="matrix(-0.109617,0.0806445,-0.0820248,-0.107772,200.642,56.6512)">
        <path d="M318.556,185.615C322.261,186.153 323.49,188.194 321.752,191.475C321.14,192.632 319.799,193.727 318.556,194.143C315.139,195.299 312.771,193.873 312.72,190.376C312.673,186.97 314.999,185.373 318.556,185.615" style="fill-rule:nonzero;"/>
    </g>
</svg>
