<?xml version="1.0" encoding="UTF-8" standalone="no"?>
<!DOCTYPE svg PUBLIC "-//W3C//DTD SVG 1.1//EN" "http://www.w3.org/Graphics/SVG/1.1/DTD/svg11.dtd">
<svg width="100%" height="100%" viewBox="0 0 88 88" version="1.1" xmlns="http://www.w3.org/2000/svg" xmlns:xlink="http://www.w3.org/1999/xlink" xml:space="preserve" xmlns:serif="http://www.serif.com/" style="fill-rule:evenodd;clip-rule:evenodd;stroke-linejoin:round;stroke-miterlimit:2;">
    <g transform="matrix(1,0,0,1,-6,-6)">
        <path d="M50,6C25.7,6 6,25.7 6,50C6,74.3 25.7,94 50,94C74.3,94 94,74.3 94,50C94,25.7 74.3,6 50,6ZM50,91C27.4,91 9,72.6 9,50C9,27.4 27.4,9 50,9C72.6,9 91,27.4 91,50C91,72.6 72.6,91 50,91Z" style="fill-rule:nonzero;"/>
    </g>
    <g transform="matrix(1,0,0,1,-6,-6)">
        <path d="M72,28.8C71.8,28.4 71.6,28.1 71.2,28C71,27.9 70.8,27.9 70.7,27.9L49.4,27.9C48.6,27.9 47.9,28.6 47.9,29.4C47.9,30.2 48.6,30.9 49.4,30.9L67,30.9L30.9,67L30.9,49.4C30.9,48.6 30.2,47.9 29.4,47.9C28.6,47.9 27.9,48.6 27.9,49.4L27.9,70.6C27.9,70.8 27.9,71 28,71.1C28.2,71.5 28.4,71.8 28.8,71.9C29,72 29.2,72 29.3,72L50.5,72C51.3,72 52,71.3 52,70.5C52,69.7 51.3,69 50.5,69L33,69L69.1,33L69.1,50.6C69.1,51.4 69.8,52.1 70.6,52.1C71.4,52.1 72.1,51.4 72.1,50.6L72.1,29.4C72.1,29.2 72.1,29 72,28.8Z" style="fill-rule:nonzero;"/>
    </g>
</svg>
