<svg viewBox="0 0 26 26" fill="none" xmlns="http://www.w3.org/2000/svg">
        <path d="M19.5042 13.9863C19.5042 17.5706 16.5864 20.4863 13 20.4863C9.41356 20.4863 6.49576 17.5706 6.49576 13.9863C6.49576 11.0609 8.43999 8.58262 11.1047 7.76959L11.8373 8.41996C9.25461 8.95792 7.30826 11.2488 7.30826 13.9863C7.30826 17.1221 9.86108 19.6738 13 19.6738C16.1389 19.6738 18.6917 17.1221 18.6917 13.9863C18.6917 11.2481 16.7446 8.9566 14.1608 8.4193L14.8939 7.76919C17.5592 8.58156 19.5042 11.0603 19.5042 13.9863L19.5042 13.9863ZM12.9933 8.00697L9.74471 5.12342L11.3862 3.48189H14.6032L16.2429 5.12157L16.25 5.11865L16.2447 5.12341L16.2394 5.12831H16.2393L12.9933 8.00697V8.00697ZM13.7173 4.02355L14.4113 5.06894L14.0069 6.02506L14.7506 5.7246L15.4551 5.09976L14.3788 4.02357H13.7173L13.7173 4.02355ZM10.5342 5.09988L11.2282 5.71586L13 6.43183L13.2975 6.31162L13.7998 5.12606L13.0672 4.02355H11.6107L10.5342 5.09988V5.09988Z" fill="currentColor"></path>
      </svg>